{
	"asset":{
		"generator":"Khronos glTF Blender I/O v4.3.47",
		"version":"2.0"
	},
	"extensionsUsed":[
		"KHR_materials_clearcoat"
	],
	"scene":0,
	"scenes":[
		{
			"name":"Scene",
			"nodes":[
				13
			]
		}
	],
	"nodes":[
		{
			"mesh":0,
			"name":"Object_5"
		},
		{
			"children":[
				0
			],
			"name":"eyeLeft_0"
		},
		{
			"children":[
				1
			],
			"name":"grp_eyeLeft_1",
			"rotation":[
				0.7429426312446594,
				-0.08066075295209885,
				-0.06158044934272766,
				0.6616177558898926
			],
			"scale":[
				0.009999998845160007,
				0.009999999776482582,
				0.010000000707805157
			],
			"translation":[
				-0.0265089999884367,
				0.03141454607248306,
				0.02533862181007862
			]
		},
		{
			"mesh":1,
			"name":"Object_8"
		},
		{
			"children":[
				3
			],
			"name":"eyeRight_2"
		},
		{
			"children":[
				4
			],
			"name":"grp_eyeRight_3",
			"rotation":[
				0.7449893355369568,
				-0.05861004441976547,
				-0.08502871543169022,
				0.6590340733528137
			],
			"scale":[
				0.009999999776482582,
				0.009999998845160007,
				0.010000000707805157
			],
			"translation":[
				0.037927258759737015,
				0.01824193447828293,
				0.0236727986484766
			]
		},
		{
			"mesh":2,
			"name":"mesh_2"
		},
		{
			"children":[
				6
			],
			"name":"head_4"
		},
		{
			"mesh":3,
			"name":"Object_13"
		},
		{
			"children":[
				8
			],
			"name":"teeth_5"
		},
		{
			"children":[
				7,
				9
			],
			"name":"grp_transform_6",
			"rotation":[
				0.7138006091117859,
				-0.06333792209625244,
				-0.07922535389661789,
				0.6929649114608765
			],
			"scale":[
				0.009999997913837433,
				0.010000001639127731,
				0.010000000707805157
			]
		},
		{
			"children":[
				2,
				5,
				10
			],
			"name":"GLTF_SceneRootNode",
			"rotation":[
				0.70710688829422,
				0,
				0,
				0.7071066498756409
			]
		},
		{
			"children":[
				11
			],
			"name":"root"
		},
		{
			"children":[
				12
			],
			"name":"Sketchfab_model",
			"rotation":[
				-0.70710688829422,
				0,
				0,
				0.7071066498756409
			]
		}
	],
	"animations":[
		{
			"channels":[
				{
					"sampler":0,
					"target":{
						"node":2,
						"path":"translation"
					}
				},
				{
					"sampler":1,
					"target":{
						"node":2,
						"path":"rotation"
					}
				},
				{
					"sampler":2,
					"target":{
						"node":2,
						"path":"scale"
					}
				},
				{
					"sampler":3,
					"target":{
						"node":5,
						"path":"translation"
					}
				},
				{
					"sampler":4,
					"target":{
						"node":5,
						"path":"rotation"
					}
				},
				{
					"sampler":5,
					"target":{
						"node":5,
						"path":"scale"
					}
				},
				{
					"sampler":6,
					"target":{
						"node":10,
						"path":"translation"
					}
				},
				{
					"sampler":7,
					"target":{
						"node":10,
						"path":"rotation"
					}
				},
				{
					"sampler":8,
					"target":{
						"node":10,
						"path":"scale"
					}
				},
				{
					"sampler":9,
					"target":{
						"node":6,
						"path":"weights"
					}
				}
			],
			"name":"Animation",
			"samplers":[
				{
					"input":119,
					"interpolation":"LINEAR",
					"output":120
				},
				{
					"input":119,
					"interpolation":"LINEAR",
					"output":121
				},
				{
					"input":122,
					"interpolation":"STEP",
					"output":123
				},
				{
					"input":119,
					"interpolation":"LINEAR",
					"output":124
				},
				{
					"input":119,
					"interpolation":"LINEAR",
					"output":125
				},
				{
					"input":122,
					"interpolation":"STEP",
					"output":126
				},
				{
					"input":119,
					"interpolation":"LINEAR",
					"output":127
				},
				{
					"input":119,
					"interpolation":"LINEAR",
					"output":128
				},
				{
					"input":122,
					"interpolation":"STEP",
					"output":129
				},
				{
					"input":119,
					"interpolation":"LINEAR",
					"output":130
				}
			]
		}
	],
	"materials":[
		{
			"doubleSided":true,
			"extensions":{
				"KHR_materials_clearcoat":{
					"clearcoatFactor":0.4773246943950653,
					"clearcoatRoughnessFactor":0.03999999910593033
				}
			},
			"name":"lambert5",
			"pbrMetallicRoughness":{
				"baseColorFactor":[
					0.29439786076545715,
					0.29439786076545715,
					0.29439786076545715,
					1
				],
				"metallicFactor":0.28220275044441223,
				"roughnessFactor":0.6236661672592163
			}
		}
	],
	"meshes":[
		{
			"name":"Object_0",
			"primitives":[
				{
					"attributes":{
						"POSITION":0,
						"NORMAL":1,
						"TEXCOORD_0":2
					},
					"indices":3,
					"material":0
				}
			]
		},
		{
			"name":"Object_1",
			"primitives":[
				{
					"attributes":{
						"POSITION":4,
						"NORMAL":5,
						"TEXCOORD_0":6
					},
					"indices":3,
					"material":0
				}
			]
		},
		{
			"extras":{
				"targetNames":[
					"target_0",
					"target_1",
					"target_2",
					"target_3",
					"target_4",
					"target_5",
					"target_6",
					"target_7",
					"target_8",
					"target_9",
					"target_10",
					"target_11",
					"target_12",
					"target_13",
					"target_14",
					"target_15",
					"target_16",
					"target_17",
					"target_18",
					"target_19",
					"target_20",
					"target_21",
					"target_22",
					"target_23",
					"target_24",
					"target_25",
					"target_26",
					"target_27",
					"target_28",
					"target_29",
					"target_30",
					"target_31",
					"target_32",
					"target_33",
					"target_34",
					"target_35",
					"target_36",
					"target_37",
					"target_38",
					"target_39",
					"target_40",
					"target_41",
					"target_42",
					"target_43",
					"target_44",
					"target_45",
					"target_46",
					"target_47",
					"target_48",
					"target_49",
					"target_50",
					"target_51"
				]
			},
			"name":"mesh_2",
			"primitives":[
				{
					"attributes":{
						"POSITION":7,
						"NORMAL":8,
						"TEXCOORD_0":9
					},
					"indices":10,
					"material":0,
					"targets":[
						{
							"POSITION":11,
							"NORMAL":12
						},
						{
							"POSITION":13,
							"NORMAL":14
						},
						{
							"POSITION":15,
							"NORMAL":16
						},
						{
							"POSITION":17,
							"NORMAL":18
						},
						{
							"POSITION":19,
							"NORMAL":20
						},
						{
							"POSITION":21,
							"NORMAL":22
						},
						{
							"POSITION":23,
							"NORMAL":24
						},
						{
							"POSITION":25,
							"NORMAL":26
						},
						{
							"POSITION":27,
							"NORMAL":28
						},
						{
							"POSITION":29,
							"NORMAL":30
						},
						{
							"POSITION":31,
							"NORMAL":32
						},
						{
							"POSITION":33,
							"NORMAL":34
						},
						{
							"POSITION":35,
							"NORMAL":36
						},
						{
							"POSITION":37,
							"NORMAL":38
						},
						{
							"POSITION":39,
							"NORMAL":40
						},
						{
							"POSITION":41,
							"NORMAL":42
						},
						{
							"POSITION":43,
							"NORMAL":44
						},
						{
							"POSITION":45,
							"NORMAL":46
						},
						{
							"POSITION":47,
							"NORMAL":48
						},
						{
							"POSITION":49,
							"NORMAL":50
						},
						{
							"POSITION":51,
							"NORMAL":52
						},
						{
							"POSITION":53,
							"NORMAL":54
						},
						{
							"POSITION":55,
							"NORMAL":56
						},
						{
							"POSITION":57,
							"NORMAL":58
						},
						{
							"POSITION":59,
							"NORMAL":60
						},
						{
							"POSITION":61,
							"NORMAL":62
						},
						{
							"POSITION":63,
							"NORMAL":64
						},
						{
							"POSITION":65,
							"NORMAL":66
						},
						{
							"POSITION":67,
							"NORMAL":68
						},
						{
							"POSITION":69,
							"NORMAL":70
						},
						{
							"POSITION":71,
							"NORMAL":72
						},
						{
							"POSITION":73,
							"NORMAL":74
						},
						{
							"POSITION":75,
							"NORMAL":76
						},
						{
							"POSITION":77,
							"NORMAL":78
						},
						{
							"POSITION":79,
							"NORMAL":80
						},
						{
							"POSITION":81,
							"NORMAL":82
						},
						{
							"POSITION":83,
							"NORMAL":84
						},
						{
							"POSITION":85,
							"NORMAL":86
						},
						{
							"POSITION":87,
							"NORMAL":88
						},
						{
							"POSITION":89,
							"NORMAL":90
						},
						{
							"POSITION":91,
							"NORMAL":92
						},
						{
							"POSITION":93,
							"NORMAL":94
						},
						{
							"POSITION":95,
							"NORMAL":96
						},
						{
							"POSITION":97,
							"NORMAL":98
						},
						{
							"POSITION":99,
							"NORMAL":100
						},
						{
							"POSITION":101,
							"NORMAL":102
						},
						{
							"POSITION":103,
							"NORMAL":104
						},
						{
							"POSITION":105,
							"NORMAL":106
						},
						{
							"POSITION":107,
							"NORMAL":108
						},
						{
							"POSITION":109,
							"NORMAL":110
						},
						{
							"POSITION":111,
							"NORMAL":112
						},
						{
							"POSITION":113,
							"NORMAL":114
						}
					]
				}
			],
			"weights":[
				0.08100000023841858,
				0.17000000178813934,
				0.17000000178813934,
				0,
				0,
				0,
				0,
				0.1720000058412552,
				0.1720000058412552,
				0.07699999958276749,
				0.04600000008940697,
				0,
				0,
				0.04899999871850014,
				0.04899999871850014,
				0.14100000262260437,
				0.14100000262260437,
				0,
				0,
				0.03099999949336052,
				0.05400000140070915,
				0.050999999046325684,
				0.06700000166893005,
				0.06499999761581421,
				0.008999999612569809,
				0.02800000086426735,
				0.0020000000949949026,
				0.0010000000474974513,
				0.04399999976158142,
				0.03700000047683716,
				0.012000000104308128,
				0,
				0.05000000074505806,
				0.057999998331069946,
				0.10000000149011612,
				0.3019999861717224,
				0.010999999940395355,
				0.05900000035762787,
				0.027000000700354576,
				0,
				0,
				0.24199999868869781,
				0.21400000154972076,
				0.06700000166893005,
				0.06700000166893005,
				0.020999999716877937,
				0.02199999988079071,
				0.09200000017881393,
				0.09399999678134918,
				0.057999998331069946,
				0.08299999684095383,
				2.0000001313746907e-05
			]
		},
		{
			"name":"Object_3",
			"primitives":[
				{
					"attributes":{
						"POSITION":115,
						"NORMAL":116,
						"TEXCOORD_0":117
					},
					"indices":118,
					"material":0
				}
			]
		}
	],
	"accessors":[
		{
			"bufferView":0,
			"componentType":5126,
			"count":530,
			"max":[
				1.9279694557189941,
				1.8280054330825806,
				1.9279685020446777
			],
			"min":[
				-1.9279694557189941,
				-1.9279663562774658,
				-1.9279695749282837
			],
			"type":"VEC3"
		},
		{
			"bufferView":1,
			"componentType":5126,
			"count":530,
			"type":"VEC3"
		},
		{
			"bufferView":2,
			"componentType":5126,
			"count":530,
			"type":"VEC2"
		},
		{
			"bufferView":3,
			"componentType":5123,
			"count":2880,
			"type":"SCALAR"
		},
		{
			"bufferView":4,
			"componentType":5126,
			"count":530,
			"max":[
				1.9279694557189941,
				1.8280054330825806,
				1.9279685020446777
			],
			"min":[
				-1.9279694557189941,
				-1.9279663562774658,
				-1.9279695749282837
			],
			"type":"VEC3"
		},
		{
			"bufferView":5,
			"componentType":5126,
			"count":530,
			"type":"VEC3"
		},
		{
			"bufferView":6,
			"componentType":5126,
			"count":530,
			"type":"VEC2"
		},
		{
			"bufferView":7,
			"componentType":5126,
			"count":2697,
			"max":[
				9.515158653259277,
				8.423506736755371,
				9.525510787963867
			],
			"min":[
				-9.515158653259277,
				-15.143632888793945,
				-13.850944519042969
			],
			"type":"VEC3"
		},
		{
			"bufferView":8,
			"componentType":5126,
			"count":2697,
			"type":"VEC3"
		},
		{
			"bufferView":9,
			"componentType":5126,
			"count":2697,
			"type":"VEC2"
		},
		{
			"bufferView":10,
			"componentType":5123,
			"count":15096,
			"type":"SCALAR"
		},
		{
			"componentType":5126,
			"count":2697,
			"max":[
				0.2080017328262329,
				0.1516284942626953,
				0.00365447998046875
			],
			"min":[
				-0.2080017328262329,
				-0.31918907165527344,
				-1.292440414428711
			],
			"sparse":{
				"count":230,
				"indices":{
					"bufferView":11,
					"componentType":5123
				},
				"values":{
					"bufferView":12
				}
			},
			"type":"VEC3"
		},
		{
			"bufferView":13,
			"componentType":5126,
			"count":2697,
			"type":"VEC3"
		},
		{
			"componentType":5126,
			"count":2697,
			"max":[
				0.04184645414352417,
				0.5008103847503662,
				0.8976786136627197
			],
			"min":[
				-0.5267071723937988,
				-0.0074176788330078125,
				-0.03604471683502197
			],
			"sparse":{
				"count":300,
				"indices":{
					"bufferView":14,
					"componentType":5123
				},
				"values":{
					"bufferView":15
				}
			},
			"type":"VEC3"
		},
		{
			"bufferView":16,
			"componentType":5126,
			"count":2697,
			"type":"VEC3"
		},
		{
			"componentType":5126,
			"count":2697,
			"max":[
				0.5267071723937988,
				0.5008103847503662,
				0.8976786136627197
			],
			"min":[
				-0.04184645414352417,
				-0.0074176788330078125,
				-0.03604471683502197
			],
			"sparse":{
				"count":288,
				"indices":{
					"bufferView":17,
					"componentType":5123
				},
				"values":{
					"bufferView":18
				}
			},
			"type":"VEC3"
		},
		{
			"bufferView":19,
			"componentType":5126,
			"count":2697,
			"type":"VEC3"
		},
		{
			"componentType":5126,
			"count":2697,
			"max":[
				0.15009164810180664,
				0.015609264373779297,
				0.0024080276489257812
			],
			"min":[
				-0.014652252197265625,
				-0.596259355545044,
				-1.2313799858093262
			],
			"sparse":{
				"count":124,
				"indices":{
					"bufferView":20,
					"componentType":5123
				},
				"values":{
					"bufferView":21
				}
			},
			"type":"VEC3"
		},
		{
			"bufferView":22,
			"componentType":5126,
			"count":2697,
			"type":"VEC3"
		},
		{
			"componentType":5126,
			"count":2697,
			"max":[
				0.014652252197265625,
				0.015609264373779297,
				0.0024080276489257812
			],
			"min":[
				-0.15009164810180664,
				-0.596259355545044,
				-1.2313799858093262
			],
			"sparse":{
				"count":120,
				"indices":{
					"bufferView":23,
					"componentType":5123
				},
				"values":{
					"bufferView":24
				}
			},
			"type":"VEC3"
		},
		{
			"bufferView":25,
			"componentType":5126,
			"count":2697,
			"type":"VEC3"
		},
		{
			"componentType":5126,
			"count":2697,
			"max":[
				0.07015514373779297,
				0.02287578582763672,
				0.0024831295013427734
			],
			"min":[
				-0.013039827346801758,
				-0.16630268096923828,
				-0.4060707092285156
			],
			"sparse":{
				"count":172,
				"indices":{
					"bufferView":26,
					"componentType":5123
				},
				"values":{
					"bufferView":27
				}
			},
			"type":"VEC3"
		},
		{
			"bufferView":28,
			"componentType":5126,
			"count":2697,
			"type":"VEC3"
		},
		{
			"componentType":5126,
			"count":2697,
			"max":[
				0.013039827346801758,
				0.02287578582763672,
				0.0024831295013427734
			],
			"min":[
				-0.07015514373779297,
				-0.16630268096923828,
				-0.4060707092285156
			],
			"sparse":{
				"count":172,
				"indices":{
					"bufferView":29,
					"componentType":5123
				},
				"values":{
					"bufferView":30
				}
			},
			"type":"VEC3"
		},
		{
			"bufferView":31,
			"componentType":5126,
			"count":2697,
			"type":"VEC3"
		},
		{
			"componentType":5126,
			"count":2697,
			"max":[
				0.06660699844360352,
				0.10711288452148438,
				0.5142800807952881
			],
			"min":[
				-0.06264019012451172,
				-0.12202310562133789,
				-0.00644993782043457
			],
			"sparse":{
				"count":191,
				"indices":{
					"bufferView":32,
					"componentType":5123
				},
				"values":{
					"bufferView":33
				}
			},
			"type":"VEC3"
		},
		{
			"bufferView":34,
			"componentType":5126,
			"count":2697,
			"type":"VEC3"
		},
		{
			"componentType":5126,
			"count":2697,
			"max":[
				0.06264019012451172,
				0.10711288452148438,
				0.5142800807952881
			],
			"min":[
				-0.06660699844360352,
				-0.12202310562133789,
				-0.00644993782043457
			],
			"sparse":{
				"count":191,
				"indices":{
					"bufferView":35,
					"componentType":5123
				},
				"values":{
					"bufferView":36
				}
			},
			"type":"VEC3"
		},
		{
			"bufferView":37,
			"componentType":5126,
			"count":2697,
			"type":"VEC3"
		},
		{
			"componentType":5126,
			"count":2697,
			"max":[
				0.0011931657791137695,
				0.17246246337890625,
				0.04448342323303223
			],
			"min":[
				-0.42435622215270996,
				-0.1699681282043457,
				-0.06560754776000977
			],
			"sparse":{
				"count":200,
				"indices":{
					"bufferView":38,
					"componentType":5123
				},
				"values":{
					"bufferView":39
				}
			},
			"type":"VEC3"
		},
		{
			"bufferView":40,
			"componentType":5126,
			"count":2697,
			"type":"VEC3"
		},
		{
			"componentType":5126,
			"count":2697,
			"max":[
				0.42435622215270996,
				0.17246246337890625,
				0.04448342323303223
			],
			"min":[
				-0.0011931657791137695,
				-0.1699681282043457,
				-0.06560754776000977
			],
			"sparse":{
				"count":200,
				"indices":{
					"bufferView":41,
					"componentType":5123
				},
				"values":{
					"bufferView":42
				}
			},
			"type":"VEC3"
		},
		{
			"bufferView":43,
			"componentType":5126,
			"count":2697,
			"type":"VEC3"
		},
		{
			"componentType":5126,
			"count":2697,
			"max":[
				0.37267041206359863,
				0.021532535552978516,
				0.039452552795410156
			],
			"min":[
				-0.009943485260009766,
				-0.20946431159973145,
				-0.041774749755859375
			],
			"sparse":{
				"count":184,
				"indices":{
					"bufferView":44,
					"componentType":5123
				},
				"values":{
					"bufferView":45
				}
			},
			"type":"VEC3"
		},
		{
			"bufferView":46,
			"componentType":5126,
			"count":2697,
			"type":"VEC3"
		},
		{
			"componentType":5126,
			"count":2697,
			"max":[
				0.009943485260009766,
				0.021532535552978516,
				0.039452552795410156
			],
			"min":[
				-0.37267041206359863,
				-0.20946431159973145,
				-0.041774749755859375
			],
			"sparse":{
				"count":184,
				"indices":{
					"bufferView":47,
					"componentType":5123
				},
				"values":{
					"bufferView":48
				}
			},
			"type":"VEC3"
		},
		{
			"bufferView":49,
			"componentType":5126,
			"count":2697,
			"type":"VEC3"
		},
		{
			"componentType":5126,
			"count":2697,
			"max":[
				0.04124808311462402,
				0.2317802906036377,
				1.0167241096496582
			],
			"min":[
				-0.36295223236083984,
				-0.13408470153808594,
				-0.05526554584503174
			],
			"sparse":{
				"count":182,
				"indices":{
					"bufferView":50,
					"componentType":5123
				},
				"values":{
					"bufferView":51
				}
			},
			"type":"VEC3"
		},
		{
			"bufferView":52,
			"componentType":5126,
			"count":2697,
			"type":"VEC3"
		},
		{
			"componentType":5126,
			"count":2697,
			"max":[
				0.36295223236083984,
				0.2317802906036377,
				1.0167241096496582
			],
			"min":[
				-0.04124808311462402,
				-0.13408470153808594,
				-0.05526554584503174
			],
			"sparse":{
				"count":182,
				"indices":{
					"bufferView":53,
					"componentType":5123
				},
				"values":{
					"bufferView":54
				}
			},
			"type":"VEC3"
		},
		{
			"bufferView":55,
			"componentType":5126,
			"count":2697,
			"type":"VEC3"
		},
		{
			"componentType":5126,
			"count":2697,
			"max":[
				0.004321455955505371,
				0.26366567611694336,
				0.002182483673095703
			],
			"min":[
				-0.41301512718200684,
				-0.06891846656799316,
				-0.4240764379501343
			],
			"sparse":{
				"count":233,
				"indices":{
					"bufferView":56,
					"componentType":5123
				},
				"values":{
					"bufferView":57
				}
			},
			"type":"VEC3"
		},
		{
			"bufferView":58,
			"componentType":5126,
			"count":2697,
			"type":"VEC3"
		},
		{
			"componentType":5126,
			"count":2697,
			"max":[
				0.41301512718200684,
				0.26366567611694336,
				0.002182483673095703
			],
			"min":[
				-0.004321455955505371,
				-0.06891846656799316,
				-0.4240764379501343
			],
			"sparse":{
				"count":233,
				"indices":{
					"bufferView":59,
					"componentType":5123
				},
				"values":{
					"bufferView":60
				}
			},
			"type":"VEC3"
		},
		{
			"bufferView":61,
			"componentType":5126,
			"count":2697,
			"type":"VEC3"
		},
		{
			"componentType":5126,
			"count":2697,
			"max":[
				0.05055713653564453,
				0.006697177886962891,
				0.08961188793182373
			],
			"min":[
				-0.006460905075073242,
				-0.1547565460205078,
				-0.3686821460723877
			],
			"sparse":{
				"count":190,
				"indices":{
					"bufferView":62,
					"componentType":5123
				},
				"values":{
					"bufferView":63
				}
			},
			"type":"VEC3"
		},
		{
			"bufferView":64,
			"componentType":5126,
			"count":2697,
			"type":"VEC3"
		},
		{
			"componentType":5126,
			"count":2697,
			"max":[
				0.006460905075073242,
				0.006697177886962891,
				0.08961188793182373
			],
			"min":[
				-0.05055713653564453,
				-0.1547565460205078,
				-0.3686821460723877
			],
			"sparse":{
				"count":190,
				"indices":{
					"bufferView":65,
					"componentType":5123
				},
				"values":{
					"bufferView":66
				}
			},
			"type":"VEC3"
		},
		{
			"bufferView":67,
			"componentType":5126,
			"count":2697,
			"type":"VEC3"
		},
		{
			"componentType":5126,
			"count":2697,
			"max":[
				0.43785834312438965,
				1.0286245346069336,
				0.23618769645690918
			],
			"min":[
				-0.43785834312438965,
				-0.17284941673278809,
				-0.3636293411254883
			],
			"sparse":{
				"count":891,
				"indices":{
					"bufferView":68,
					"componentType":5123
				},
				"values":{
					"bufferView":69
				}
			},
			"type":"VEC3"
		},
		{
			"bufferView":70,
			"componentType":5126,
			"count":2697,
			"type":"VEC3"
		},
		{
			"componentType":5126,
			"count":2697,
			"max":[
				0.14343738555908203,
				0.3296058177947998,
				0.20612049102783203
			],
			"min":[
				-0.25846195220947266,
				-0.18929672241210938,
				-0.840137243270874
			],
			"sparse":{
				"count":492,
				"indices":{
					"bufferView":71,
					"componentType":5123
				},
				"values":{
					"bufferView":72
				}
			},
			"type":"VEC3"
		},
		{
			"bufferView":73,
			"componentType":5126,
			"count":2697,
			"type":"VEC3"
		},
		{
			"componentType":5126,
			"count":2697,
			"max":[
				0.25846195220947266,
				0.3296058177947998,
				0.20612049102783203
			],
			"min":[
				-0.14343738555908203,
				-0.18929672241210938,
				-0.840137243270874
			],
			"sparse":{
				"count":460,
				"indices":{
					"bufferView":74,
					"componentType":5123
				},
				"values":{
					"bufferView":75
				}
			},
			"type":"VEC3"
		},
		{
			"bufferView":76,
			"componentType":5126,
			"count":2697,
			"type":"VEC3"
		},
		{
			"componentType":5126,
			"count":2697,
			"max":[
				0.07550811767578125,
				0.1843409538269043,
				0.42020654678344727
			],
			"min":[
				-0.1438131332397461,
				-0.15150976181030273,
				-0.561046838760376
			],
			"sparse":{
				"count":637,
				"indices":{
					"bufferView":77,
					"componentType":5123
				},
				"values":{
					"bufferView":78
				}
			},
			"type":"VEC3"
		},
		{
			"bufferView":79,
			"componentType":5126,
			"count":2697,
			"type":"VEC3"
		},
		{
			"componentType":5126,
			"count":2697,
			"max":[
				0.1438131332397461,
				0.1843409538269043,
				0.42020654678344727
			],
			"min":[
				-0.07550811767578125,
				-0.15150976181030273,
				-0.561046838760376
			],
			"sparse":{
				"count":625,
				"indices":{
					"bufferView":80,
					"componentType":5123
				},
				"values":{
					"bufferView":81
				}
			},
			"type":"VEC3"
		},
		{
			"bufferView":82,
			"componentType":5126,
			"count":2697,
			"type":"VEC3"
		},
		{
			"componentType":5126,
			"count":2697,
			"max":[
				0.5581401586532593,
				0.10359859466552734,
				4.280155181884766
			],
			"min":[
				-0.5581401586532593,
				-2.8842360973358154,
				-0.07182073593139648
			],
			"sparse":{
				"count":1409,
				"indices":{
					"bufferView":83,
					"componentType":5123
				},
				"values":{
					"bufferView":84
				}
			},
			"type":"VEC3"
		},
		{
			"bufferView":85,
			"componentType":5126,
			"count":2697,
			"type":"VEC3"
		},
		{
			"componentType":5126,
			"count":2697,
			"max":[
				0.18218088150024414,
				1.0592732429504395,
				0.14660930633544922
			],
			"min":[
				-0.18218088150024414,
				-0.005622386932373047,
				-0.14644718170166016
			],
			"sparse":{
				"count":1198,
				"indices":{
					"bufferView":86,
					"componentType":5123
				},
				"values":{
					"bufferView":87
				}
			},
			"type":"VEC3"
		},
		{
			"bufferView":88,
			"componentType":5126,
			"count":2697,
			"type":"VEC3"
		},
		{
			"componentType":5126,
			"count":2697,
			"max":[
				0.9587312340736389,
				0.6124703884124756,
				0.0746157169342041
			],
			"min":[
				-0.1694197654724121,
				-0.48375022411346436,
				-0.4153261184692383
			],
			"sparse":{
				"count":1366,
				"indices":{
					"bufferView":89,
					"componentType":5123
				},
				"values":{
					"bufferView":90
				}
			},
			"type":"VEC3"
		},
		{
			"bufferView":91,
			"componentType":5126,
			"count":2697,
			"type":"VEC3"
		},
		{
			"componentType":5126,
			"count":2697,
			"max":[
				0.2505073547363281,
				0.6124703884124756,
				0.0746157169342041
			],
			"min":[
				-0.9587312340736389,
				-0.3116038143634796,
				-0.4153261184692383
			],
			"sparse":{
				"count":1362,
				"indices":{
					"bufferView":92,
					"componentType":5123
				},
				"values":{
					"bufferView":93
				}
			},
			"type":"VEC3"
		},
		{
			"bufferView":94,
			"componentType":5126,
			"count":2697,
			"type":"VEC3"
		},
		{
			"componentType":5126,
			"count":2697,
			"max":[
				1.159258484840393,
				1.299180507659912,
				0.982001781463623
			],
			"min":[
				-1.159258484840393,
				-0.43501996994018555,
				-0.6916873455047607
			],
			"sparse":{
				"count":890,
				"indices":{
					"bufferView":95,
					"componentType":5123
				},
				"values":{
					"bufferView":96
				}
			},
			"type":"VEC3"
		},
		{
			"bufferView":97,
			"componentType":5126,
			"count":2697,
			"type":"VEC3"
		},
		{
			"componentType":5126,
			"count":2697,
			"max":[
				0.8280616998672485,
				1.1812963485717773,
				0.19538116455078125
			],
			"min":[
				-0.8280616998672485,
				-0.0024938583374023438,
				-0.503551721572876
			],
			"sparse":{
				"count":848,
				"indices":{
					"bufferView":98,
					"componentType":5123
				},
				"values":{
					"bufferView":99
				}
			},
			"type":"VEC3"
		},
		{
			"bufferView":100,
			"componentType":5126,
			"count":2697,
			"type":"VEC3"
		},
		{
			"componentType":5126,
			"count":2697,
			"max":[
				1.3879884481430054,
				0.645688533782959,
				0.18493270874023438
			],
			"min":[
				-0.0035696029663085938,
				-0.8521528244018555,
				-0.9379265308380127
			],
			"sparse":{
				"count":843,
				"indices":{
					"bufferView":101,
					"componentType":5123
				},
				"values":{
					"bufferView":102
				}
			},
			"type":"VEC3"
		},
		{
			"bufferView":103,
			"componentType":5126,
			"count":2697,
			"type":"VEC3"
		},
		{
			"componentType":5126,
			"count":2697,
			"max":[
				0.01916790008544922,
				0.645688533782959,
				0.18493270874023438
			],
			"min":[
				-1.3879884481430054,
				-0.8521528244018555,
				-0.9379265308380127
			],
			"sparse":{
				"count":843,
				"indices":{
					"bufferView":104,
					"componentType":5123
				},
				"values":{
					"bufferView":105
				}
			},
			"type":"VEC3"
		},
		{
			"bufferView":106,
			"componentType":5126,
			"count":2697,
			"type":"VEC3"
		},
		{
			"componentType":5126,
			"count":2697,
			"max":[
				0.188490629196167,
				0.2011551856994629,
				0.9912676811218262
			],
			"min":[
				-0.188490629196167,
				-0.9818077087402344,
				-0.23677921295166016
			],
			"sparse":{
				"count":776,
				"indices":{
					"bufferView":107,
					"componentType":5123
				},
				"values":{
					"bufferView":108
				}
			},
			"type":"VEC3"
		},
		{
			"bufferView":109,
			"componentType":5126,
			"count":2697,
			"type":"VEC3"
		},
		{
			"componentType":5126,
			"count":2697,
			"max":[
				0.3082348108291626,
				0.49049997329711914,
				0.014803409576416016
			],
			"min":[
				-0.3082348108291626,
				-0.7062530517578125,
				-0.9749393463134766
			],
			"sparse":{
				"count":407,
				"indices":{
					"bufferView":110,
					"componentType":5123
				},
				"values":{
					"bufferView":111
				}
			},
			"type":"VEC3"
		},
		{
			"bufferView":112,
			"componentType":5126,
			"count":2697,
			"type":"VEC3"
		},
		{
			"componentType":5126,
			"count":2697,
			"max":[
				0.04596054553985596,
				0.08437681198120117,
				0.046883970499038696
			],
			"min":[
				-0.04596054553985596,
				-0.1248617172241211,
				-0.5448422431945801
			],
			"sparse":{
				"count":699,
				"indices":{
					"bufferView":113,
					"componentType":5123
				},
				"values":{
					"bufferView":114
				}
			},
			"type":"VEC3"
		},
		{
			"bufferView":115,
			"componentType":5126,
			"count":2697,
			"type":"VEC3"
		},
		{
			"componentType":5126,
			"count":2697,
			"max":[
				0.2247610092163086,
				0.5115060806274414,
				0.03133583068847656
			],
			"min":[
				-0.2247610092163086,
				-0.03715193271636963,
				-0.8012089729309082
			],
			"sparse":{
				"count":528,
				"indices":{
					"bufferView":116,
					"componentType":5123
				},
				"values":{
					"bufferView":117
				}
			},
			"type":"VEC3"
		},
		{
			"bufferView":118,
			"componentType":5126,
			"count":2697,
			"type":"VEC3"
		},
		{
			"componentType":5126,
			"count":2697,
			"max":[
				0.25897812843322754,
				1.3495655059814453,
				1.642019271850586
			],
			"min":[
				-0.25897812843322754,
				-0.5142579078674316,
				-2.7833898067474365
			],
			"sparse":{
				"count":667,
				"indices":{
					"bufferView":119,
					"componentType":5123
				},
				"values":{
					"bufferView":120
				}
			},
			"type":"VEC3"
		},
		{
			"bufferView":121,
			"componentType":5126,
			"count":2697,
			"type":"VEC3"
		},
		{
			"componentType":5126,
			"count":2697,
			"max":[
				0.9695322513580322,
				0.36855292320251465,
				0.1346416473388672
			],
			"min":[
				-0.08803939819335938,
				-1.6730871200561523,
				-1.0626156330108643
			],
			"sparse":{
				"count":771,
				"indices":{
					"bufferView":122,
					"componentType":5123
				},
				"values":{
					"bufferView":123
				}
			},
			"type":"VEC3"
		},
		{
			"bufferView":124,
			"componentType":5126,
			"count":2697,
			"type":"VEC3"
		},
		{
			"componentType":5126,
			"count":2697,
			"max":[
				0.08803939819335938,
				0.36855292320251465,
				0.1346416473388672
			],
			"min":[
				-0.9695322513580322,
				-1.6730871200561523,
				-1.0626156330108643
			],
			"sparse":{
				"count":759,
				"indices":{
					"bufferView":125,
					"componentType":5123
				},
				"values":{
					"bufferView":126
				}
			},
			"type":"VEC3"
		},
		{
			"bufferView":127,
			"componentType":5126,
			"count":2697,
			"type":"VEC3"
		},
		{
			"componentType":5126,
			"count":2697,
			"max":[
				0.3327230215072632,
				0.20481443405151367,
				0.6064505577087402
			],
			"min":[
				-0.07438945770263672,
				-0.4997248649597168,
				-0.04856729507446289
			],
			"sparse":{
				"count":611,
				"indices":{
					"bufferView":128,
					"componentType":5123
				},
				"values":{
					"bufferView":129
				}
			},
			"type":"VEC3"
		},
		{
			"bufferView":130,
			"componentType":5126,
			"count":2697,
			"type":"VEC3"
		},
		{
			"componentType":5126,
			"count":2697,
			"max":[
				0.07438945770263672,
				0.20481443405151367,
				0.6064505577087402
			],
			"min":[
				-0.3327230215072632,
				-0.4997248649597168,
				-0.04856729507446289
			],
			"sparse":{
				"count":603,
				"indices":{
					"bufferView":131,
					"componentType":5123
				},
				"values":{
					"bufferView":132
				}
			},
			"type":"VEC3"
		},
		{
			"bufferView":133,
			"componentType":5126,
			"count":2697,
			"type":"VEC3"
		},
		{
			"componentType":5126,
			"count":2697,
			"max":[
				0.543745756149292,
				0.161604642868042,
				0.05665254592895508
			],
			"min":[
				-0.03603410720825195,
				-1.061476707458496,
				-0.6567716598510742
			],
			"sparse":{
				"count":676,
				"indices":{
					"bufferView":134,
					"componentType":5123
				},
				"values":{
					"bufferView":135
				}
			},
			"type":"VEC3"
		},
		{
			"bufferView":136,
			"componentType":5126,
			"count":2697,
			"type":"VEC3"
		},
		{
			"componentType":5126,
			"count":2697,
			"max":[
				0.03603410720825195,
				0.161604642868042,
				0.05665254592895508
			],
			"min":[
				-0.543745756149292,
				-1.061476707458496,
				-0.6567716598510742
			],
			"sparse":{
				"count":668,
				"indices":{
					"bufferView":137,
					"componentType":5123
				},
				"values":{
					"bufferView":138
				}
			},
			"type":"VEC3"
		},
		{
			"bufferView":139,
			"componentType":5126,
			"count":2697,
			"type":"VEC3"
		},
		{
			"componentType":5126,
			"count":2697,
			"max":[
				0.3662741184234619,
				0.13684701919555664,
				0.003612041473388672
			],
			"min":[
				-0.10129737854003906,
				-0.6751861572265625,
				-0.8954966068267822
			],
			"sparse":{
				"count":375,
				"indices":{
					"bufferView":140,
					"componentType":5123
				},
				"values":{
					"bufferView":141
				}
			},
			"type":"VEC3"
		},
		{
			"bufferView":142,
			"componentType":5126,
			"count":2697,
			"type":"VEC3"
		},
		{
			"componentType":5126,
			"count":2697,
			"max":[
				0.10129737854003906,
				0.13684701919555664,
				0.003612041473388672
			],
			"min":[
				-0.3662741184234619,
				-0.6751861572265625,
				-0.8954966068267822
			],
			"sparse":{
				"count":375,
				"indices":{
					"bufferView":143,
					"componentType":5123
				},
				"values":{
					"bufferView":144
				}
			},
			"type":"VEC3"
		},
		{
			"bufferView":145,
			"componentType":5126,
			"count":2697,
			"type":"VEC3"
		},
		{
			"componentType":5126,
			"count":2697,
			"max":[
				0.12654876708984375,
				0.026713848114013672,
				0.8217086791992188
			],
			"min":[
				-0.02292954921722412,
				-0.21193647384643555,
				-0.020661354064941406
			],
			"sparse":{
				"count":221,
				"indices":{
					"bufferView":146,
					"componentType":5123
				},
				"values":{
					"bufferView":147
				}
			},
			"type":"VEC3"
		},
		{
			"bufferView":148,
			"componentType":5126,
			"count":2697,
			"type":"VEC3"
		},
		{
			"componentType":5126,
			"count":2697,
			"max":[
				0.02292954921722412,
				0.026713848114013672,
				0.8217086791992188
			],
			"min":[
				-0.12654876708984375,
				-0.21193647384643555,
				-0.020661354064941406
			],
			"sparse":{
				"count":221,
				"indices":{
					"bufferView":149,
					"componentType":5123
				},
				"values":{
					"bufferView":150
				}
			},
			"type":"VEC3"
		},
		{
			"bufferView":151,
			"componentType":5126,
			"count":2697,
			"type":"VEC3"
		},
		{
			"componentType":5126,
			"count":2697,
			"max":[
				0.5712659358978271,
				0.6338200569152832,
				0.07375788688659668
			],
			"min":[
				-0.09084844589233398,
				-0.3819260597229004,
				-1.0938239097595215
			],
			"sparse":{
				"count":723,
				"indices":{
					"bufferView":152,
					"componentType":5123
				},
				"values":{
					"bufferView":153
				}
			},
			"type":"VEC3"
		},
		{
			"bufferView":154,
			"componentType":5126,
			"count":2697,
			"type":"VEC3"
		},
		{
			"componentType":5126,
			"count":2697,
			"max":[
				0.09084844589233398,
				0.6338200569152832,
				0.07375788688659668
			],
			"min":[
				-0.5712659358978271,
				-0.3819260597229004,
				-1.0938239097595215
			],
			"sparse":{
				"count":715,
				"indices":{
					"bufferView":155,
					"componentType":5123
				},
				"values":{
					"bufferView":156
				}
			},
			"type":"VEC3"
		},
		{
			"bufferView":157,
			"componentType":5126,
			"count":2697,
			"type":"VEC3"
		},
		{
			"componentType":5126,
			"count":2697,
			"max":[
				0.9221677780151367,
				0.014598369598388672,
				0.6622538566589355
			],
			"min":[
				-0.02956247329711914,
				-1.2923214435577393,
				-0.12632274627685547
			],
			"sparse":{
				"count":599,
				"indices":{
					"bufferView":158,
					"componentType":5123
				},
				"values":{
					"bufferView":159
				}
			},
			"type":"VEC3"
		},
		{
			"bufferView":160,
			"componentType":5126,
			"count":2697,
			"type":"VEC3"
		},
		{
			"componentType":5126,
			"count":2697,
			"max":[
				0.02956247329711914,
				0.014598369598388672,
				0.6622538566589355
			],
			"min":[
				-0.9221677780151367,
				-1.2923214435577393,
				-0.12632274627685547
			],
			"sparse":{
				"count":595,
				"indices":{
					"bufferView":161,
					"componentType":5123
				},
				"values":{
					"bufferView":162
				}
			},
			"type":"VEC3"
		},
		{
			"bufferView":163,
			"componentType":5126,
			"count":2697,
			"type":"VEC3"
		},
		{
			"componentType":5126,
			"count":2697,
			"max":[
				0,
				0,
				0
			],
			"min":[
				0,
				0,
				0
			],
			"sparse":{
				"count":1,
				"indices":{
					"bufferView":164,
					"componentType":5121
				},
				"values":{
					"bufferView":165
				}
			},
			"type":"VEC3"
		},
		{
			"bufferView":166,
			"componentType":5126,
			"count":2697,
			"type":"VEC3"
		},
		{
			"bufferView":167,
			"componentType":5126,
			"count":614,
			"max":[
				2.740981101989746,
				5.627742767333984,
				4.58726167678833
			],
			"min":[
				-2.7397451400756836,
				1.0070579051971436,
				2.9834365844726562
			],
			"type":"VEC3"
		},
		{
			"bufferView":168,
			"componentType":5126,
			"count":614,
			"type":"VEC3"
		},
		{
			"bufferView":169,
			"componentType":5126,
			"count":614,
			"type":"VEC2"
		},
		{
			"bufferView":170,
			"componentType":5123,
			"count":3270,
			"type":"SCALAR"
		},
		{
			"bufferView":171,
			"componentType":5126,
			"count":377,
			"max":[
				15.666666666666666
			],
			"min":[
				0
			],
			"type":"SCALAR"
		},
		{
			"bufferView":172,
			"componentType":5126,
			"count":377,
			"type":"VEC3"
		},
		{
			"bufferView":173,
			"componentType":5126,
			"count":377,
			"type":"VEC4"
		},
		{
			"bufferView":174,
			"componentType":5126,
			"count":2,
			"max":[
				15.666666666666666
			],
			"min":[
				0
			],
			"type":"SCALAR"
		},
		{
			"bufferView":175,
			"componentType":5126,
			"count":2,
			"type":"VEC3"
		},
		{
			"bufferView":176,
			"componentType":5126,
			"count":377,
			"type":"VEC3"
		},
		{
			"bufferView":177,
			"componentType":5126,
			"count":377,
			"type":"VEC4"
		},
		{
			"bufferView":178,
			"componentType":5126,
			"count":2,
			"type":"VEC3"
		},
		{
			"bufferView":179,
			"componentType":5126,
			"count":377,
			"type":"VEC3"
		},
		{
			"bufferView":180,
			"componentType":5126,
			"count":377,
			"type":"VEC4"
		},
		{
			"bufferView":181,
			"componentType":5126,
			"count":2,
			"type":"VEC3"
		},
		{
			"bufferView":182,
			"componentType":5126,
			"count":19604,
			"type":"SCALAR"
		}
	],
	"bufferViews":[
		{
			"buffer":0,
			"byteLength":6360,
			"byteOffset":0,
			"target":34962
		},
		{
			"buffer":0,
			"byteLength":6360,
			"byteOffset":6360,
			"target":34962
		},
		{
			"buffer":0,
			"byteLength":4240,
			"byteOffset":12720,
			"target":34962
		},
		{
			"buffer":0,
			"byteLength":5760,
			"byteOffset":16960,
			"target":34963
		},
		{
			"buffer":0,
			"byteLength":6360,
			"byteOffset":22720,
			"target":34962
		},
		{
			"buffer":0,
			"byteLength":6360,
			"byteOffset":29080,
			"target":34962
		},
		{
			"buffer":0,
			"byteLength":4240,
			"byteOffset":35440,
			"target":34962
		},
		{
			"buffer":0,
			"byteLength":32364,
			"byteOffset":39680,
			"target":34962
		},
		{
			"buffer":0,
			"byteLength":32364,
			"byteOffset":72044,
			"target":34962
		},
		{
			"buffer":0,
			"byteLength":21576,
			"byteOffset":104408,
			"target":34962
		},
		{
			"buffer":0,
			"byteLength":30192,
			"byteOffset":125984,
			"target":34963
		},
		{
			"buffer":0,
			"byteLength":460,
			"byteOffset":156176
		},
		{
			"buffer":0,
			"byteLength":2760,
			"byteOffset":156636
		},
		{
			"buffer":0,
			"byteLength":32364,
			"byteOffset":159396,
			"target":34962
		},
		{
			"buffer":0,
			"byteLength":600,
			"byteOffset":191760
		},
		{
			"buffer":0,
			"byteLength":3600,
			"byteOffset":192360
		},
		{
			"buffer":0,
			"byteLength":32364,
			"byteOffset":195960,
			"target":34962
		},
		{
			"buffer":0,
			"byteLength":576,
			"byteOffset":228324
		},
		{
			"buffer":0,
			"byteLength":3456,
			"byteOffset":228900
		},
		{
			"buffer":0,
			"byteLength":32364,
			"byteOffset":232356,
			"target":34962
		},
		{
			"buffer":0,
			"byteLength":248,
			"byteOffset":264720
		},
		{
			"buffer":0,
			"byteLength":1488,
			"byteOffset":264968
		},
		{
			"buffer":0,
			"byteLength":32364,
			"byteOffset":266456,
			"target":34962
		},
		{
			"buffer":0,
			"byteLength":240,
			"byteOffset":298820
		},
		{
			"buffer":0,
			"byteLength":1440,
			"byteOffset":299060
		},
		{
			"buffer":0,
			"byteLength":32364,
			"byteOffset":300500,
			"target":34962
		},
		{
			"buffer":0,
			"byteLength":344,
			"byteOffset":332864
		},
		{
			"buffer":0,
			"byteLength":2064,
			"byteOffset":333208
		},
		{
			"buffer":0,
			"byteLength":32364,
			"byteOffset":335272,
			"target":34962
		},
		{
			"buffer":0,
			"byteLength":344,
			"byteOffset":367636
		},
		{
			"buffer":0,
			"byteLength":2064,
			"byteOffset":367980
		},
		{
			"buffer":0,
			"byteLength":32364,
			"byteOffset":370044,
			"target":34962
		},
		{
			"buffer":0,
			"byteLength":382,
			"byteOffset":402408
		},
		{
			"buffer":0,
			"byteLength":2292,
			"byteOffset":402792
		},
		{
			"buffer":0,
			"byteLength":32364,
			"byteOffset":405084,
			"target":34962
		},
		{
			"buffer":0,
			"byteLength":382,
			"byteOffset":437448
		},
		{
			"buffer":0,
			"byteLength":2292,
			"byteOffset":437832
		},
		{
			"buffer":0,
			"byteLength":32364,
			"byteOffset":440124,
			"target":34962
		},
		{
			"buffer":0,
			"byteLength":400,
			"byteOffset":472488
		},
		{
			"buffer":0,
			"byteLength":2400,
			"byteOffset":472888
		},
		{
			"buffer":0,
			"byteLength":32364,
			"byteOffset":475288,
			"target":34962
		},
		{
			"buffer":0,
			"byteLength":400,
			"byteOffset":507652
		},
		{
			"buffer":0,
			"byteLength":2400,
			"byteOffset":508052
		},
		{
			"buffer":0,
			"byteLength":32364,
			"byteOffset":510452,
			"target":34962
		},
		{
			"buffer":0,
			"byteLength":368,
			"byteOffset":542816
		},
		{
			"buffer":0,
			"byteLength":2208,
			"byteOffset":543184
		},
		{
			"buffer":0,
			"byteLength":32364,
			"byteOffset":545392,
			"target":34962
		},
		{
			"buffer":0,
			"byteLength":368,
			"byteOffset":577756
		},
		{
			"buffer":0,
			"byteLength":2208,
			"byteOffset":578124
		},
		{
			"buffer":0,
			"byteLength":32364,
			"byteOffset":580332,
			"target":34962
		},
		{
			"buffer":0,
			"byteLength":364,
			"byteOffset":612696
		},
		{
			"buffer":0,
			"byteLength":2184,
			"byteOffset":613060
		},
		{
			"buffer":0,
			"byteLength":32364,
			"byteOffset":615244,
			"target":34962
		},
		{
			"buffer":0,
			"byteLength":364,
			"byteOffset":647608
		},
		{
			"buffer":0,
			"byteLength":2184,
			"byteOffset":647972
		},
		{
			"buffer":0,
			"byteLength":32364,
			"byteOffset":650156,
			"target":34962
		},
		{
			"buffer":0,
			"byteLength":466,
			"byteOffset":682520
		},
		{
			"buffer":0,
			"byteLength":2796,
			"byteOffset":682988
		},
		{
			"buffer":0,
			"byteLength":32364,
			"byteOffset":685784,
			"target":34962
		},
		{
			"buffer":0,
			"byteLength":466,
			"byteOffset":718148
		},
		{
			"buffer":0,
			"byteLength":2796,
			"byteOffset":718616
		},
		{
			"buffer":0,
			"byteLength":32364,
			"byteOffset":721412,
			"target":34962
		},
		{
			"buffer":0,
			"byteLength":380,
			"byteOffset":753776
		},
		{
			"buffer":0,
			"byteLength":2280,
			"byteOffset":754156
		},
		{
			"buffer":0,
			"byteLength":32364,
			"byteOffset":756436,
			"target":34962
		},
		{
			"buffer":0,
			"byteLength":380,
			"byteOffset":788800
		},
		{
			"buffer":0,
			"byteLength":2280,
			"byteOffset":789180
		},
		{
			"buffer":0,
			"byteLength":32364,
			"byteOffset":791460,
			"target":34962
		},
		{
			"buffer":0,
			"byteLength":1782,
			"byteOffset":823824
		},
		{
			"buffer":0,
			"byteLength":10692,
			"byteOffset":825608
		},
		{
			"buffer":0,
			"byteLength":32364,
			"byteOffset":836300,
			"target":34962
		},
		{
			"buffer":0,
			"byteLength":984,
			"byteOffset":868664
		},
		{
			"buffer":0,
			"byteLength":5904,
			"byteOffset":869648
		},
		{
			"buffer":0,
			"byteLength":32364,
			"byteOffset":875552,
			"target":34962
		},
		{
			"buffer":0,
			"byteLength":920,
			"byteOffset":907916
		},
		{
			"buffer":0,
			"byteLength":5520,
			"byteOffset":908836
		},
		{
			"buffer":0,
			"byteLength":32364,
			"byteOffset":914356,
			"target":34962
		},
		{
			"buffer":0,
			"byteLength":1274,
			"byteOffset":946720
		},
		{
			"buffer":0,
			"byteLength":7644,
			"byteOffset":947996
		},
		{
			"buffer":0,
			"byteLength":32364,
			"byteOffset":955640,
			"target":34962
		},
		{
			"buffer":0,
			"byteLength":1250,
			"byteOffset":988004
		},
		{
			"buffer":0,
			"byteLength":7500,
			"byteOffset":989256
		},
		{
			"buffer":0,
			"byteLength":32364,
			"byteOffset":996756,
			"target":34962
		},
		{
			"buffer":0,
			"byteLength":2818,
			"byteOffset":1029120
		},
		{
			"buffer":0,
			"byteLength":16908,
			"byteOffset":1031940
		},
		{
			"buffer":0,
			"byteLength":32364,
			"byteOffset":1048848,
			"target":34962
		},
		{
			"buffer":0,
			"byteLength":2396,
			"byteOffset":1081212
		},
		{
			"buffer":0,
			"byteLength":14376,
			"byteOffset":1083608
		},
		{
			"buffer":0,
			"byteLength":32364,
			"byteOffset":1097984,
			"target":34962
		},
		{
			"buffer":0,
			"byteLength":2732,
			"byteOffset":1130348
		},
		{
			"buffer":0,
			"byteLength":16392,
			"byteOffset":1133080
		},
		{
			"buffer":0,
			"byteLength":32364,
			"byteOffset":1149472,
			"target":34962
		},
		{
			"buffer":0,
			"byteLength":2724,
			"byteOffset":1181836
		},
		{
			"buffer":0,
			"byteLength":16344,
			"byteOffset":1184560
		},
		{
			"buffer":0,
			"byteLength":32364,
			"byteOffset":1200904,
			"target":34962
		},
		{
			"buffer":0,
			"byteLength":1780,
			"byteOffset":1233268
		},
		{
			"buffer":0,
			"byteLength":10680,
			"byteOffset":1235048
		},
		{
			"buffer":0,
			"byteLength":32364,
			"byteOffset":1245728,
			"target":34962
		},
		{
			"buffer":0,
			"byteLength":1696,
			"byteOffset":1278092
		},
		{
			"buffer":0,
			"byteLength":10176,
			"byteOffset":1279788
		},
		{
			"buffer":0,
			"byteLength":32364,
			"byteOffset":1289964,
			"target":34962
		},
		{
			"buffer":0,
			"byteLength":1686,
			"byteOffset":1322328
		},
		{
			"buffer":0,
			"byteLength":10116,
			"byteOffset":1324016
		},
		{
			"buffer":0,
			"byteLength":32364,
			"byteOffset":1334132,
			"target":34962
		},
		{
			"buffer":0,
			"byteLength":1686,
			"byteOffset":1366496
		},
		{
			"buffer":0,
			"byteLength":10116,
			"byteOffset":1368184
		},
		{
			"buffer":0,
			"byteLength":32364,
			"byteOffset":1378300,
			"target":34962
		},
		{
			"buffer":0,
			"byteLength":1552,
			"byteOffset":1410664
		},
		{
			"buffer":0,
			"byteLength":9312,
			"byteOffset":1412216
		},
		{
			"buffer":0,
			"byteLength":32364,
			"byteOffset":1421528,
			"target":34962
		},
		{
			"buffer":0,
			"byteLength":814,
			"byteOffset":1453892
		},
		{
			"buffer":0,
			"byteLength":4884,
			"byteOffset":1454708
		},
		{
			"buffer":0,
			"byteLength":32364,
			"byteOffset":1459592,
			"target":34962
		},
		{
			"buffer":0,
			"byteLength":1398,
			"byteOffset":1491956
		},
		{
			"buffer":0,
			"byteLength":8388,
			"byteOffset":1493356
		},
		{
			"buffer":0,
			"byteLength":32364,
			"byteOffset":1501744,
			"target":34962
		},
		{
			"buffer":0,
			"byteLength":1056,
			"byteOffset":1534108
		},
		{
			"buffer":0,
			"byteLength":6336,
			"byteOffset":1535164
		},
		{
			"buffer":0,
			"byteLength":32364,
			"byteOffset":1541500,
			"target":34962
		},
		{
			"buffer":0,
			"byteLength":1334,
			"byteOffset":1573864
		},
		{
			"buffer":0,
			"byteLength":8004,
			"byteOffset":1575200
		},
		{
			"buffer":0,
			"byteLength":32364,
			"byteOffset":1583204,
			"target":34962
		},
		{
			"buffer":0,
			"byteLength":1542,
			"byteOffset":1615568
		},
		{
			"buffer":0,
			"byteLength":9252,
			"byteOffset":1617112
		},
		{
			"buffer":0,
			"byteLength":32364,
			"byteOffset":1626364,
			"target":34962
		},
		{
			"buffer":0,
			"byteLength":1518,
			"byteOffset":1658728
		},
		{
			"buffer":0,
			"byteLength":9108,
			"byteOffset":1660248
		},
		{
			"buffer":0,
			"byteLength":32364,
			"byteOffset":1669356,
			"target":34962
		},
		{
			"buffer":0,
			"byteLength":1222,
			"byteOffset":1701720
		},
		{
			"buffer":0,
			"byteLength":7332,
			"byteOffset":1702944
		},
		{
			"buffer":0,
			"byteLength":32364,
			"byteOffset":1710276,
			"target":34962
		},
		{
			"buffer":0,
			"byteLength":1206,
			"byteOffset":1742640
		},
		{
			"buffer":0,
			"byteLength":7236,
			"byteOffset":1743848
		},
		{
			"buffer":0,
			"byteLength":32364,
			"byteOffset":1751084,
			"target":34962
		},
		{
			"buffer":0,
			"byteLength":1352,
			"byteOffset":1783448
		},
		{
			"buffer":0,
			"byteLength":8112,
			"byteOffset":1784800
		},
		{
			"buffer":0,
			"byteLength":32364,
			"byteOffset":1792912,
			"target":34962
		},
		{
			"buffer":0,
			"byteLength":1336,
			"byteOffset":1825276
		},
		{
			"buffer":0,
			"byteLength":8016,
			"byteOffset":1826612
		},
		{
			"buffer":0,
			"byteLength":32364,
			"byteOffset":1834628,
			"target":34962
		},
		{
			"buffer":0,
			"byteLength":750,
			"byteOffset":1866992
		},
		{
			"buffer":0,
			"byteLength":4500,
			"byteOffset":1867744
		},
		{
			"buffer":0,
			"byteLength":32364,
			"byteOffset":1872244,
			"target":34962
		},
		{
			"buffer":0,
			"byteLength":750,
			"byteOffset":1904608
		},
		{
			"buffer":0,
			"byteLength":4500,
			"byteOffset":1905360
		},
		{
			"buffer":0,
			"byteLength":32364,
			"byteOffset":1909860,
			"target":34962
		},
		{
			"buffer":0,
			"byteLength":442,
			"byteOffset":1942224
		},
		{
			"buffer":0,
			"byteLength":2652,
			"byteOffset":1942668
		},
		{
			"buffer":0,
			"byteLength":32364,
			"byteOffset":1945320,
			"target":34962
		},
		{
			"buffer":0,
			"byteLength":442,
			"byteOffset":1977684
		},
		{
			"buffer":0,
			"byteLength":2652,
			"byteOffset":1978128
		},
		{
			"buffer":0,
			"byteLength":32364,
			"byteOffset":1980780,
			"target":34962
		},
		{
			"buffer":0,
			"byteLength":1446,
			"byteOffset":2013144
		},
		{
			"buffer":0,
			"byteLength":8676,
			"byteOffset":2014592
		},
		{
			"buffer":0,
			"byteLength":32364,
			"byteOffset":2023268,
			"target":34962
		},
		{
			"buffer":0,
			"byteLength":1430,
			"byteOffset":2055632
		},
		{
			"buffer":0,
			"byteLength":8580,
			"byteOffset":2057064
		},
		{
			"buffer":0,
			"byteLength":32364,
			"byteOffset":2065644,
			"target":34962
		},
		{
			"buffer":0,
			"byteLength":1198,
			"byteOffset":2098008
		},
		{
			"buffer":0,
			"byteLength":7188,
			"byteOffset":2099208
		},
		{
			"buffer":0,
			"byteLength":32364,
			"byteOffset":2106396,
			"target":34962
		},
		{
			"buffer":0,
			"byteLength":1190,
			"byteOffset":2138760
		},
		{
			"buffer":0,
			"byteLength":7140,
			"byteOffset":2139952
		},
		{
			"buffer":0,
			"byteLength":32364,
			"byteOffset":2147092,
			"target":34962
		},
		{
			"buffer":0,
			"byteLength":1,
			"byteOffset":2179456
		},
		{
			"buffer":0,
			"byteLength":12,
			"byteOffset":2179460
		},
		{
			"buffer":0,
			"byteLength":32364,
			"byteOffset":2179472,
			"target":34962
		},
		{
			"buffer":0,
			"byteLength":7368,
			"byteOffset":2211836,
			"target":34962
		},
		{
			"buffer":0,
			"byteLength":7368,
			"byteOffset":2219204,
			"target":34962
		},
		{
			"buffer":0,
			"byteLength":4912,
			"byteOffset":2226572,
			"target":34962
		},
		{
			"buffer":0,
			"byteLength":6540,
			"byteOffset":2231484,
			"target":34963
		},
		{
			"buffer":0,
			"byteLength":1508,
			"byteOffset":2238024
		},
		{
			"buffer":0,
			"byteLength":4524,
			"byteOffset":2239532
		},
		{
			"buffer":0,
			"byteLength":6032,
			"byteOffset":2244056
		},
		{
			"buffer":0,
			"byteLength":8,
			"byteOffset":2250088
		},
		{
			"buffer":0,
			"byteLength":24,
			"byteOffset":2250096
		},
		{
			"buffer":0,
			"byteLength":4524,
			"byteOffset":2250120
		},
		{
			"buffer":0,
			"byteLength":6032,
			"byteOffset":2254644
		},
		{
			"buffer":0,
			"byteLength":24,
			"byteOffset":2260676
		},
		{
			"buffer":0,
			"byteLength":4524,
			"byteOffset":2260700
		},
		{
			"buffer":0,
			"byteLength":6032,
			"byteOffset":2265224
		},
		{
			"buffer":0,
			"byteLength":24,
			"byteOffset":2271256
		},
		{
			"buffer":0,
			"byteLength":78416,
			"byteOffset":2271280
		}
	],
	"buffers":[
		{
			"byteLength":2349696,
			"uri":"untitled.bin"
		}
	]
}
