{
  "asset": {
    "extras": {
      "author": "Jimmy Gunawan (https://sketchfab.com/jimmygunawan)",
      "license": "CC-BY-4.0 (http://creativecommons.org/licenses/by/4.0/)",
      "source": "https://sketchfab.com/3d-models/blender-sushi-virtual-journal-16th-april-2020-634af2ae983f4fb8a9295e6b1b3d5c74",
      "title": "Blender Sushi Virtual Journal, 16th April 2020"
    },
    "generator": "Sketchfab-12.65.0",
    "version": "2.0"
  },
  "buffers": [
    {
      "uri": "Sketchfab_Scene.bin",
      "byteLength": 3600952
    }
  ],
  "bufferViews": [
    {
      "buffer": 0,
      "byteOffset": 0,
      "byteLength": 12720,
      "byteStride": 24,
      "target": 34962
    },
    {
      "buffer": 0,
      "byteOffset": 12720,
      "byteLength": 4240,
      "byteStride": 8,
      "target": 34962
    },
    {
      "buffer": 0,
      "byteOffset": 16960,
      "byteLength": 11520,
      "target": 34963
    },
    {
      "buffer": 0,
      "byteOffset": 28480,
      "byteLength": 12720,
      "byteStride": 24,
      "target": 34962
    },
    {
      "buffer": 0,
      "byteOffset": 41200,
      "byteLength": 4240,
      "byteStride": 8,
      "target": 34962
    },
    {
      "buffer": 0,
      "byteOffset": 45440,
      "byteLength": 11520,
      "target": 34963
    },
    {
      "buffer": 0,
      "byteOffset": 56960,
      "byteLength": 3429312,
      "byteStride": 1272,
      "target": 34962
    },
    {
      "buffer": 0,
      "byteOffset": 3486272,
      "byteLength": 21568,
      "byteStride": 8,
      "target": 34962
    },
    {
      "buffer": 0,
      "byteOffset": 3507840,
      "byteLength": 60384,
      "target": 34963
    },
    {
      "buffer": 0,
      "byteOffset": 3568224,
      "byteLength": 14736,
      "byteStride": 24,
      "target": 34962
    },
    {
      "buffer": 0,
      "byteOffset": 3582960,
      "byteLength": 4912,
      "byteStride": 8,
      "target": 34962
    },
    {
      "buffer": 0,
      "byteOffset": 3587872,
      "byteLength": 13080,
      "target": 34963
    }
  ],
  "accessors": [
    {
      "bufferView": 0,
      "byteOffset": 0,
      "componentType": 5126,
      "normalized": false,
      "count": 530,
      "min": [
        -1,
        -1,
        -1
      ],
      "max": [
        1,
        1,
        1
      ],
      "type": "VEC3"
    },
    {
      "bufferView": 0,
      "byteOffset": 12,
      "componentType": 5126,
      "normalized": false,
      "count": 530,
      "min": [
        -1.9279694557189941,
        -1.9279663562774658,
        -1.9279695749282837
      ],
      "max": [
        1.9279694557189941,
        1.8280054330825806,
        1.9279685020446777
      ],
      "type": "VEC3"
    },
    {
      "bufferView": 1,
      "byteOffset": 0,
      "componentType": 5126,
      "normalized": false,
      "count": 530,
      "min": [
        0.019999999552965164,
        0.010360299609601498
      ],
      "max": [
        0.18000000715255737,
        0.4749999940395355
      ],
      "type": "VEC2"
    },
    {
      "bufferView": 2,
      "byteOffset": 0,
      "componentType": 5125,
      "normalized": false,
      "count": 2880,
      "min": [
        0
      ],
      "max": [
        529
      ],
      "type": "SCALAR"
    },
    {
      "bufferView": 3,
      "byteOffset": 0,
      "componentType": 5126,
      "normalized": false,
      "count": 530,
      "min": [
        -1,
        -1,
        -1
      ],
      "max": [
        1,
        1,
        1
      ],
      "type": "VEC3"
    },
    {
      "bufferView": 3,
      "byteOffset": 12,
      "componentType": 5126,
      "normalized": false,
      "count": 530,
      "min": [
        -1.9279694557189941,
        -1.9279663562774658,
        -1.9279695749282837
      ],
      "max": [
        1.9279694557189941,
        1.8280054330825806,
        1.9279685020446777
      ],
      "type": "VEC3"
    },
    {
      "bufferView": 4,
      "byteOffset": 0,
      "componentType": 5126,
      "normalized": false,
      "count": 530,
      "min": [
        0.8199999928474426,
        0.010360299609601498
      ],
      "max": [
        0.9800000190734863,
        0.4749999940395355
      ],
      "type": "VEC2"
    },
    {
      "bufferView": 5,
      "byteOffset": 0,
      "componentType": 5125,
      "normalized": false,
      "count": 2880,
      "min": [
        0
      ],
      "max": [
        529
      ],
      "type": "SCALAR"
    },
    {
      "bufferView": 6,
      "byteOffset": 0,
      "componentType": 5126,
      "normalized": false,
      "count": 2696,
      "min": [
        -0.9998778104782104,
        -0.999181866645813,
        -0.9990934133529663
      ],
      "max": [
        0.9998778104782104,
        0.9999594688415527,
        0.9989946484565735
      ],
      "type": "VEC3"
    },
    {
      "bufferView": 6,
      "byteOffset": 12,
      "componentType": 5126,
      "normalized": false,
      "count": 2696,
      "min": [
        -9.515158653259277,
        -15.143632888793945,
        -13.850944519042969
      ],
      "max": [
        9.515158653259277,
        8.423506736755371,
        9.525510787963867
      ],
      "type": "VEC3"
    },
    {
      "bufferView": 6,
      "byteOffset": 24,
      "componentType": 5126,
      "normalized": false,
      "count": 2696,
      "min": [
        -0.07215884327888489,
        -0.031519293785095215,
        -0.2918320894241333
      ],
      "max": [
        0.0721588134765625,
        0.18497848510742188,
        0.1522713601589203
      ],
      "type": "VEC3"
    },
    {
      "bufferView": 6,
      "byteOffset": 36,
      "componentType": 5126,
      "normalized": false,
      "count": 2696,
      "min": [
        -0.2080017328262329,
        -0.31918907165527344,
        -1.292440414428711
      ],
      "max": [
        0.2080017328262329,
        0.1516284942626953,
        0.00365447998046875
      ],
      "type": "VEC3"
    },
    {
      "bufferView": 6,
      "byteOffset": 48,
      "componentType": 5126,
      "normalized": false,
      "count": 2696,
      "min": [
        -0.3831993341445923,
        -0.3246040344238281,
        -0.10042151063680649
      ],
      "max": [
        0.06789661943912506,
        0.06776410341262817,
        0.496493935585022
      ],
      "type": "VEC3"
    },
    {
      "bufferView": 6,
      "byteOffset": 60,
      "componentType": 5126,
      "normalized": false,
      "count": 2696,
      "min": [
        -0.5267071723937988,
        -0.0074176788330078125,
        -0.03604471683502197
      ],
      "max": [
        0.04184645414352417,
        0.5008103847503662,
        0.8976786136627197
      ],
      "type": "VEC3"
    },
    {
      "bufferView": 6,
      "byteOffset": 72,
      "componentType": 5126,
      "normalized": false,
      "count": 2696,
      "min": [
        -0.06789673864841461,
        -0.3246045708656311,
        -0.10042151063680649
      ],
      "max": [
        0.3831990957260132,
        0.0677642822265625,
        0.4964944124221802
      ],
      "type": "VEC3"
    },
    {
      "bufferView": 6,
      "byteOffset": 84,
      "componentType": 5126,
      "normalized": false,
      "count": 2696,
      "min": [
        -0.04184645414352417,
        -0.0074176788330078125,
        -0.03604471683502197
      ],
      "max": [
        0.5267071723937988,
        0.5008103847503662,
        0.8976786136627197
      ],
      "type": "VEC3"
    },
    {
      "bufferView": 6,
      "byteOffset": 96,
      "componentType": 5126,
      "normalized": false,
      "count": 2696,
      "min": [
        -0.018751442432403564,
        -0.06692278385162354,
        -0.3157561123371124
      ],
      "max": [
        0.19612374901771545,
        0.12483668327331543,
        0.038847655057907104
      ],
      "type": "VEC3"
    },
    {
      "bufferView": 6,
      "byteOffset": 108,
      "componentType": 5126,
      "normalized": false,
      "count": 2696,
      "min": [
        -0.014652252197265625,
        -0.596259355545044,
        -1.2313799858093262
      ],
      "max": [
        0.15009164810180664,
        0.015609264373779297,
        0.0024080276489257812
      ],
      "type": "VEC3"
    },
    {
      "bufferView": 6,
      "byteOffset": 120,
      "componentType": 5126,
      "normalized": false,
      "count": 2696,
      "min": [
        -0.19612377882003784,
        -0.06692278385162354,
        -0.31575605273246765
      ],
      "max": [
        0.01875138282775879,
        0.12483662366867065,
        0.03884774446487427
      ],
      "type": "VEC3"
    },
    {
      "bufferView": 6,
      "byteOffset": 132,
      "componentType": 5126,
      "normalized": false,
      "count": 2696,
      "min": [
        -0.15009164810180664,
        -0.596259355545044,
        -1.2313799858093262
      ],
      "max": [
        0.014652252197265625,
        0.015609264373779297,
        0.0024080276489257812
      ],
      "type": "VEC3"
    },
    {
      "bufferView": 6,
      "byteOffset": 144,
      "componentType": 5126,
      "normalized": false,
      "count": 2696,
      "min": [
        -0.20071575045585632,
        -0.16300028562545776,
        -0.28546005487442017
      ],
      "max": [
        0.1984660029411316,
        0.13068944215774536,
        0.2055877447128296
      ],
      "type": "VEC3"
    },
    {
      "bufferView": 6,
      "byteOffset": 156,
      "componentType": 5126,
      "normalized": false,
      "count": 2696,
      "min": [
        -0.013039827346801758,
        -0.16630268096923828,
        -0.4060707092285156
      ],
      "max": [
        0.07015514373779297,
        0.02287578582763672,
        0.0024831295013427734
      ],
      "type": "VEC3"
    },
    {
      "bufferView": 6,
      "byteOffset": 168,
      "componentType": 5126,
      "normalized": false,
      "count": 2696,
      "min": [
        -0.19846594333648682,
        -0.1630001664161682,
        -0.2854589819908142
      ],
      "max": [
        0.2007158100605011,
        0.1306893229484558,
        0.20558786392211914
      ],
      "type": "VEC3"
    },
    {
      "bufferView": 6,
      "byteOffset": 180,
      "componentType": 5126,
      "normalized": false,
      "count": 2696,
      "min": [
        -0.07015514373779297,
        -0.16630268096923828,
        -0.4060707092285156
      ],
      "max": [
        0.013039827346801758,
        0.02287578582763672,
        0.0024831295013427734
      ],
      "type": "VEC3"
    },
    {
      "bufferView": 6,
      "byteOffset": 192,
      "componentType": 5126,
      "normalized": false,
      "count": 2696,
      "min": [
        -0.3393089175224304,
        -0.177931547164917,
        -0.22756467759609222
      ],
      "max": [
        0.3114052712917328,
        0.15686637163162231,
        0.20757943391799927
      ],
      "type": "VEC3"
    },
    {
      "bufferView": 6,
      "byteOffset": 204,
      "componentType": 5126,
      "normalized": false,
      "count": 2696,
      "min": [
        -0.06264019012451172,
        -0.12202310562133789,
        -0.00644993782043457
      ],
      "max": [
        0.06660699844360352,
        0.10711288452148438,
        0.5142800807952881
      ],
      "type": "VEC3"
    },
    {
      "bufferView": 6,
      "byteOffset": 216,
      "componentType": 5126,
      "normalized": false,
      "count": 2696,
      "min": [
        -0.3114052712917328,
        -0.1779317855834961,
        -0.22756467759609222
      ],
      "max": [
        0.33930885791778564,
        0.15686637163162231,
        0.20757952332496643
      ],
      "type": "VEC3"
    },
    {
      "bufferView": 6,
      "byteOffset": 228,
      "componentType": 5126,
      "normalized": false,
      "count": 2696,
      "min": [
        -0.06660699844360352,
        -0.12202310562133789,
        -0.00644993782043457
      ],
      "max": [
        0.06264019012451172,
        0.10711288452148438,
        0.5142800807952881
      ],
      "type": "VEC3"
    },
    {
      "bufferView": 6,
      "byteOffset": 240,
      "componentType": 5126,
      "normalized": false,
      "count": 2696,
      "min": [
        -0.19606178998947144,
        -0.0660257339477539,
        -0.1438748836517334
      ],
      "max": [
        0.19553658366203308,
        0.08063971996307373,
        0.117648646235466
      ],
      "type": "VEC3"
    },
    {
      "bufferView": 6,
      "byteOffset": 252,
      "componentType": 5126,
      "normalized": false,
      "count": 2696,
      "min": [
        -0.42435622215270996,
        -0.1699681282043457,
        -0.06560754776000977
      ],
      "max": [
        0.0011931657791137695,
        0.17246246337890625,
        0.04448342323303223
      ],
      "type": "VEC3"
    },
    {
      "bufferView": 6,
      "byteOffset": 264,
      "componentType": 5126,
      "normalized": false,
      "count": 2696,
      "min": [
        -0.19553649425506592,
        -0.06602567434310913,
        -0.1438748836517334
      ],
      "max": [
        0.19606173038482666,
        0.08063995838165283,
        0.11764869093894958
      ],
      "type": "VEC3"
    },
    {
      "bufferView": 6,
      "byteOffset": 276,
      "componentType": 5126,
      "normalized": false,
      "count": 2696,
      "min": [
        -0.0011931657791137695,
        -0.1699681282043457,
        -0.06560754776000977
      ],
      "max": [
        0.42435622215270996,
        0.17246246337890625,
        0.04448342323303223
      ],
      "type": "VEC3"
    },
    {
      "bufferView": 6,
      "byteOffset": 288,
      "componentType": 5126,
      "normalized": false,
      "count": 2696,
      "min": [
        -0.2088189423084259,
        -0.0460200309753418,
        -0.07237178087234497
      ],
      "max": [
        0.12629593908786774,
        0.07442843914031982,
        0.21111708879470825
      ],
      "type": "VEC3"
    },
    {
      "bufferView": 6,
      "byteOffset": 300,
      "componentType": 5126,
      "normalized": false,
      "count": 2696,
      "min": [
        -0.009943485260009766,
        -0.20946431159973145,
        -0.041774749755859375
      ],
      "max": [
        0.37267041206359863,
        0.021532535552978516,
        0.039452552795410156
      ],
      "type": "VEC3"
    },
    {
      "bufferView": 6,
      "byteOffset": 312,
      "componentType": 5126,
      "normalized": false,
      "count": 2696,
      "min": [
        -0.12629640102386475,
        -0.04602009057998657,
        -0.07237160205841064
      ],
      "max": [
        0.20881836116313934,
        0.0744292140007019,
        0.2111172378063202
      ],
      "type": "VEC3"
    },
    {
      "bufferView": 6,
      "byteOffset": 324,
      "componentType": 5126,
      "normalized": false,
      "count": 2696,
      "min": [
        -0.37267041206359863,
        -0.20946431159973145,
        -0.041774749755859375
      ],
      "max": [
        0.009943485260009766,
        0.021532535552978516,
        0.039452552795410156
      ],
      "type": "VEC3"
    },
    {
      "bufferView": 6,
      "byteOffset": 336,
      "componentType": 5126,
      "normalized": false,
      "count": 2696,
      "min": [
        -1.7498805522918701,
        -0.6486537456512451,
        -0.2693842053413391
      ],
      "max": [
        0.7694092988967896,
        0.18499258160591125,
        0.7333934307098389
      ],
      "type": "VEC3"
    },
    {
      "bufferView": 6,
      "byteOffset": 348,
      "componentType": 5126,
      "normalized": false,
      "count": 2696,
      "min": [
        -0.36295223236083984,
        -0.13408470153808594,
        -0.05526554584503174
      ],
      "max": [
        0.04124808311462402,
        0.2317802906036377,
        1.0167241096496582
      ],
      "type": "VEC3"
    },
    {
      "bufferView": 6,
      "byteOffset": 360,
      "componentType": 5126,
      "normalized": false,
      "count": 2696,
      "min": [
        -0.7694094181060791,
        -0.6486557722091675,
        -0.26938414573669434
      ],
      "max": [
        1.749880313873291,
        0.1849835216999054,
        0.7334029078483582
      ],
      "type": "VEC3"
    },
    {
      "bufferView": 6,
      "byteOffset": 372,
      "componentType": 5126,
      "normalized": false,
      "count": 2696,
      "min": [
        -0.04124808311462402,
        -0.13408470153808594,
        -0.05526554584503174
      ],
      "max": [
        0.36295223236083984,
        0.2317802906036377,
        1.0167241096496582
      ],
      "type": "VEC3"
    },
    {
      "bufferView": 6,
      "byteOffset": 384,
      "componentType": 5126,
      "normalized": false,
      "count": 2696,
      "min": [
        -1.7757420539855957,
        -0.7495383024215698,
        -0.4464173913002014
      ],
      "max": [
        0.40846607089042664,
        0.23490512371063232,
        0.4529695510864258
      ],
      "type": "VEC3"
    },
    {
      "bufferView": 6,
      "byteOffset": 396,
      "componentType": 5126,
      "normalized": false,
      "count": 2696,
      "min": [
        -0.41301512718200684,
        -0.06891846656799316,
        -0.4240764379501343
      ],
      "max": [
        0.004321455955505371,
        0.26366567611694336,
        0.002182483673095703
      ],
      "type": "VEC3"
    },
    {
      "bufferView": 6,
      "byteOffset": 408,
      "componentType": 5126,
      "normalized": false,
      "count": 2696,
      "min": [
        -0.40846630930900574,
        -0.7495447397232056,
        -0.44641754031181335
      ],
      "max": [
        1.7757399082183838,
        0.2349058985710144,
        0.4529706537723541
      ],
      "type": "VEC3"
    },
    {
      "bufferView": 6,
      "byteOffset": 420,
      "componentType": 5126,
      "normalized": false,
      "count": 2696,
      "min": [
        -0.004321455955505371,
        -0.06891846656799316,
        -0.4240764379501343
      ],
      "max": [
        0.41301512718200684,
        0.26366567611694336,
        0.002182483673095703
      ],
      "type": "VEC3"
    },
    {
      "bufferView": 6,
      "byteOffset": 432,
      "componentType": 5126,
      "normalized": false,
      "count": 2696,
      "min": [
        -0.1960611343383789,
        -0.1757335662841797,
        -0.17595182359218597
      ],
      "max": [
        0.1811051368713379,
        0.10053807497024536,
        0.14885419607162476
      ],
      "type": "VEC3"
    },
    {
      "bufferView": 6,
      "byteOffset": 444,
      "componentType": 5126,
      "normalized": false,
      "count": 2696,
      "min": [
        -0.006460905075073242,
        -0.1547565460205078,
        -0.3686821460723877
      ],
      "max": [
        0.05055713653564453,
        0.006697177886962891,
        0.08961188793182373
      ],
      "type": "VEC3"
    },
    {
      "bufferView": 6,
      "byteOffset": 456,
      "componentType": 5126,
      "normalized": false,
      "count": 2696,
      "min": [
        -0.18110531568527222,
        -0.17573368549346924,
        -0.17595230042934418
      ],
      "max": [
        0.19606107473373413,
        0.10053807497024536,
        0.1488540768623352
      ],
      "type": "VEC3"
    },
    {
      "bufferView": 6,
      "byteOffset": 468,
      "componentType": 5126,
      "normalized": false,
      "count": 2696,
      "min": [
        -0.05055713653564453,
        -0.1547565460205078,
        -0.3686821460723877
      ],
      "max": [
        0.006460905075073242,
        0.006697177886962891,
        0.08961188793182373
      ],
      "type": "VEC3"
    },
    {
      "bufferView": 6,
      "byteOffset": 480,
      "componentType": 5126,
      "normalized": false,
      "count": 2696,
      "min": [
        -0.31379809975624084,
        -0.19224458932876587,
        -0.44290661811828613
      ],
      "max": [
        0.3137843608856201,
        0.2091645449399948,
        0.37321212887763977
      ],
      "type": "VEC3"
    },
    {
      "bufferView": 6,
      "byteOffset": 492,
      "componentType": 5126,
      "normalized": false,
      "count": 2696,
      "min": [
        -0.43785834312438965,
        -0.17284941673278809,
        -0.3636293411254883
      ],
      "max": [
        0.43785834312438965,
        1.0286245346069336,
        0.23618769645690918
      ],
      "type": "VEC3"
    },
    {
      "bufferView": 6,
      "byteOffset": 504,
      "componentType": 5126,
      "normalized": false,
      "count": 2696,
      "min": [
        -0.16040214896202087,
        -0.1283007562160492,
        -0.21380729973316193
      ],
      "max": [
        0.2648641765117645,
        0.14339637756347656,
        0.1482635736465454
      ],
      "type": "VEC3"
    },
    {
      "bufferView": 6,
      "byteOffset": 516,
      "componentType": 5126,
      "normalized": false,
      "count": 2696,
      "min": [
        -0.25846195220947266,
        -0.18929672241210938,
        -0.840137243270874
      ],
      "max": [
        0.14343738555908203,
        0.3296058177947998,
        0.20612049102783203
      ],
      "type": "VEC3"
    },
    {
      "bufferView": 6,
      "byteOffset": 528,
      "componentType": 5126,
      "normalized": false,
      "count": 2696,
      "min": [
        -0.2648647725582123,
        -0.12830132246017456,
        -0.2138088494539261
      ],
      "max": [
        0.16040194034576416,
        0.1423603892326355,
        0.14826321601867676
      ],
      "type": "VEC3"
    },
    {
      "bufferView": 6,
      "byteOffset": 540,
      "componentType": 5126,
      "normalized": false,
      "count": 2696,
      "min": [
        -0.14343738555908203,
        -0.18929672241210938,
        -0.840137243270874
      ],
      "max": [
        0.25846195220947266,
        0.3296058177947998,
        0.20612049102783203
      ],
      "type": "VEC3"
    },
    {
      "bufferView": 6,
      "byteOffset": 552,
      "componentType": 5126,
      "normalized": false,
      "count": 2696,
      "min": [
        -0.164509117603302,
        -0.1671353578567505,
        -0.2693568170070648
      ],
      "max": [
        0.2189684510231018,
        0.06277364492416382,
        0.1591528207063675
      ],
      "type": "VEC3"
    },
    {
      "bufferView": 6,
      "byteOffset": 564,
      "componentType": 5126,
      "normalized": false,
      "count": 2696,
      "min": [
        -0.1438131332397461,
        -0.15150976181030273,
        -0.561046838760376
      ],
      "max": [
        0.07550811767578125,
        0.1843409538269043,
        0.42020654678344727
      ],
      "type": "VEC3"
    },
    {
      "bufferView": 6,
      "byteOffset": 576,
      "componentType": 5126,
      "normalized": false,
      "count": 2696,
      "min": [
        -0.21924974024295807,
        -0.1671352982521057,
        -0.2693561911582947
      ],
      "max": [
        0.16450899839401245,
        0.06277361512184143,
        0.1591528207063675
      ],
      "type": "VEC3"
    },
    {
      "bufferView": 6,
      "byteOffset": 588,
      "componentType": 5126,
      "normalized": false,
      "count": 2696,
      "min": [
        -0.07550811767578125,
        -0.15150976181030273,
        -0.561046838760376
      ],
      "max": [
        0.1438131332397461,
        0.1843409538269043,
        0.42020654678344727
      ],
      "type": "VEC3"
    },
    {
      "bufferView": 6,
      "byteOffset": 600,
      "componentType": 5126,
      "normalized": false,
      "count": 2696,
      "min": [
        -1.7112573385238647,
        -0.5520734786987305,
        -0.6399086713790894
      ],
      "max": [
        1.7112505435943604,
        0.774766743183136,
        0.8737362623214722
      ],
      "type": "VEC3"
    },
    {
      "bufferView": 6,
      "byteOffset": 612,
      "componentType": 5126,
      "normalized": false,
      "count": 2696,
      "min": [
        -0.5581401586532593,
        -2.8842360973358154,
        -0.07182073593139648
      ],
      "max": [
        0.5581401586532593,
        0.10359859466552734,
        4.280155181884766
      ],
      "type": "VEC3"
    },
    {
      "bufferView": 6,
      "byteOffset": 624,
      "componentType": 5126,
      "normalized": false,
      "count": 2696,
      "min": [
        -0.7411546111106873,
        -0.3364119529724121,
        -0.9734882116317749
      ],
      "max": [
        0.74115389585495,
        0.4297823905944824,
        0.19434231519699097
      ],
      "type": "VEC3"
    },
    {
      "bufferView": 6,
      "byteOffset": 636,
      "componentType": 5126,
      "normalized": false,
      "count": 2696,
      "min": [
        -0.18218088150024414,
        -0.005622386932373047,
        -0.14644718170166016
      ],
      "max": [
        0.18218088150024414,
        1.0592732429504395,
        0.14660930633544922
      ],
      "type": "VEC3"
    },
    {
      "bufferView": 6,
      "byteOffset": 648,
      "componentType": 5126,
      "normalized": false,
      "count": 2696,
      "min": [
        -0.21839241683483124,
        -0.23605865240097046,
        -0.7289170026779175
      ],
      "max": [
        1.2968276739120483,
        0.7439161539077759,
        0.26167580485343933
      ],
      "type": "VEC3"
    },
    {
      "bufferView": 6,
      "byteOffset": 660,
      "componentType": 5126,
      "normalized": false,
      "count": 2696,
      "min": [
        -0.1694197654724121,
        -0.48375022411346436,
        -0.4153261184692383
      ],
      "max": [
        0.9587312340736389,
        0.6124703884124756,
        0.0746157169342041
      ],
      "type": "VEC3"
    },
    {
      "bufferView": 6,
      "byteOffset": 672,
      "componentType": 5126,
      "normalized": false,
      "count": 2696,
      "min": [
        -1.2968305349349976,
        -0.2360573709011078,
        -0.7289161682128906
      ],
      "max": [
        0.2183920443058014,
        0.7439149022102356,
        0.26167601346969604
      ],
      "type": "VEC3"
    },
    {
      "bufferView": 6,
      "byteOffset": 684,
      "componentType": 5126,
      "normalized": false,
      "count": 2696,
      "min": [
        -0.9587312340736389,
        -0.3116038143634796,
        -0.4153261184692383
      ],
      "max": [
        0.2505073547363281,
        0.6124703884124756,
        0.0746157169342041
      ],
      "type": "VEC3"
    },
    {
      "bufferView": 6,
      "byteOffset": 696,
      "componentType": 5126,
      "normalized": false,
      "count": 2696,
      "min": [
        -0.48243334889411926,
        -0.8890608549118042,
        -0.7762776613235474
      ],
      "max": [
        0.48243358731269836,
        0.34251222014427185,
        0.60661381483078
      ],
      "type": "VEC3"
    },
    {
      "bufferView": 6,
      "byteOffset": 708,
      "componentType": 5126,
      "normalized": false,
      "count": 2696,
      "min": [
        -1.159258484840393,
        -0.43501996994018555,
        -0.6916873455047607
      ],
      "max": [
        1.159258484840393,
        1.299180507659912,
        0.982001781463623
      ],
      "type": "VEC3"
    },
    {
      "bufferView": 6,
      "byteOffset": 720,
      "componentType": 5126,
      "normalized": false,
      "count": 2696,
      "min": [
        -0.8849573135375977,
        -0.4947836995124817,
        -0.5470947623252869
      ],
      "max": [
        0.8849589824676514,
        0.5683313012123108,
        0.39442020654678345
      ],
      "type": "VEC3"
    },
    {
      "bufferView": 6,
      "byteOffset": 732,
      "componentType": 5126,
      "normalized": false,
      "count": 2696,
      "min": [
        -0.8280616998672485,
        -0.0024938583374023438,
        -0.503551721572876
      ],
      "max": [
        0.8280616998672485,
        1.1812963485717773,
        0.19538116455078125
      ],
      "type": "VEC3"
    },
    {
      "bufferView": 6,
      "byteOffset": 744,
      "componentType": 5126,
      "normalized": false,
      "count": 2696,
      "min": [
        -1.0341780185699463,
        -0.7330803871154785,
        -1.0303016901016235
      ],
      "max": [
        1.1309547424316406,
        0.7000543475151062,
        0.3942926824092865
      ],
      "type": "VEC3"
    },
    {
      "bufferView": 6,
      "byteOffset": 756,
      "componentType": 5126,
      "normalized": false,
      "count": 2696,
      "min": [
        -0.0035696029663085938,
        -0.8521528244018555,
        -0.9379265308380127
      ],
      "max": [
        1.3879884481430054,
        0.645688533782959,
        0.18493270874023438
      ],
      "type": "VEC3"
    },
    {
      "bufferView": 6,
      "byteOffset": 768,
      "componentType": 5126,
      "normalized": false,
      "count": 2696,
      "min": [
        -1.130955457687378,
        -0.7330803871154785,
        -1.0303013324737549
      ],
      "max": [
        1.0341606140136719,
        0.700049877166748,
        0.3942926526069641
      ],
      "type": "VEC3"
    },
    {
      "bufferView": 6,
      "byteOffset": 780,
      "componentType": 5126,
      "normalized": false,
      "count": 2696,
      "min": [
        -1.3879884481430054,
        -0.8521528244018555,
        -0.9379265308380127
      ],
      "max": [
        0.01916790008544922,
        0.645688533782959,
        0.18493270874023438
      ],
      "type": "VEC3"
    },
    {
      "bufferView": 6,
      "byteOffset": 792,
      "componentType": 5126,
      "normalized": false,
      "count": 2696,
      "min": [
        -1.092153787612915,
        -0.6318917274475098,
        -1.2006657123565674
      ],
      "max": [
        1.092153549194336,
        0.36400002241134644,
        0.7376824021339417
      ],
      "type": "VEC3"
    },
    {
      "bufferView": 6,
      "byteOffset": 804,
      "componentType": 5126,
      "normalized": false,
      "count": 2696,
      "min": [
        -0.188490629196167,
        -0.9818077087402344,
        -0.23677921295166016
      ],
      "max": [
        0.188490629196167,
        0.2011551856994629,
        0.9912676811218262
      ],
      "type": "VEC3"
    },
    {
      "bufferView": 6,
      "byteOffset": 816,
      "componentType": 5126,
      "normalized": false,
      "count": 2696,
      "min": [
        -0.815924346446991,
        -0.8472330570220947,
        -0.8051341772079468
      ],
      "max": [
        0.8159244656562805,
        0.2123081088066101,
        0.19910217821598053
      ],
      "type": "VEC3"
    },
    {
      "bufferView": 6,
      "byteOffset": 828,
      "componentType": 5126,
      "normalized": false,
      "count": 2696,
      "min": [
        -0.3082348108291626,
        -0.7062530517578125,
        -0.9749393463134766
      ],
      "max": [
        0.3082348108291626,
        0.49049997329711914,
        0.014803409576416016
      ],
      "type": "VEC3"
    },
    {
      "bufferView": 6,
      "byteOffset": 840,
      "componentType": 5126,
      "normalized": false,
      "count": 2696,
      "min": [
        -1.6725833415985107,
        -0.14097493886947632,
        -0.29943564534187317
      ],
      "max": [
        1.6725704669952393,
        0.5675944089889526,
        1.0245636701583862
      ],
      "type": "VEC3"
    },
    {
      "bufferView": 6,
      "byteOffset": 852,
      "componentType": 5126,
      "normalized": false,
      "count": 2696,
      "min": [
        -0.04596054553985596,
        -0.1248617172241211,
        -0.5448422431945801
      ],
      "max": [
        0.04596054553985596,
        0.08437681198120117,
        0.046883970499038696
      ],
      "type": "VEC3"
    },
    {
      "bufferView": 6,
      "byteOffset": 864,
      "componentType": 5126,
      "normalized": false,
      "count": 2696,
      "min": [
        -0.8269214034080505,
        -0.6463773846626282,
        -0.45370182394981384
      ],
      "max": [
        0.8269209861755371,
        0.1657940149307251,
        0.18531885743141174
      ],
      "type": "VEC3"
    },
    {
      "bufferView": 6,
      "byteOffset": 876,
      "componentType": 5126,
      "normalized": false,
      "count": 2696,
      "min": [
        -0.2247610092163086,
        -0.03715193271636963,
        -0.8012089729309082
      ],
      "max": [
        0.2247610092163086,
        0.5115060806274414,
        0.03133583068847656
      ],
      "type": "VEC3"
    },
    {
      "bufferView": 6,
      "byteOffset": 888,
      "componentType": 5126,
      "normalized": false,
      "count": 2696,
      "min": [
        -1.1238980293273926,
        -1.3862178325653076,
        -0.7502946853637695
      ],
      "max": [
        1.1238980293273926,
        0.49922674894332886,
        0.8545289635658264
      ],
      "type": "VEC3"
    },
    {
      "bufferView": 6,
      "byteOffset": 900,
      "componentType": 5126,
      "normalized": false,
      "count": 2696,
      "min": [
        -0.25897812843322754,
        -0.5142579078674316,
        -2.7833898067474365
      ],
      "max": [
        0.25897812843322754,
        1.3495655059814453,
        1.642019271850586
      ],
      "type": "VEC3"
    },
    {
      "bufferView": 6,
      "byteOffset": 912,
      "componentType": 5126,
      "normalized": false,
      "count": 2696,
      "min": [
        -1.2306842803955078,
        -0.4556547701358795,
        -1.122410774230957
      ],
      "max": [
        0.22065916657447815,
        0.27709662914276123,
        0.5527192950248718
      ],
      "type": "VEC3"
    },
    {
      "bufferView": 6,
      "byteOffset": 924,
      "componentType": 5126,
      "normalized": false,
      "count": 2696,
      "min": [
        -0.08803939819335938,
        -1.6730871200561523,
        -1.0626156330108643
      ],
      "max": [
        0.9695322513580322,
        0.36855292320251465,
        0.1346416473388672
      ],
      "type": "VEC3"
    },
    {
      "bufferView": 6,
      "byteOffset": 936,
      "componentType": 5126,
      "normalized": false,
      "count": 2696,
      "min": [
        -0.22065910696983337,
        -0.45565468072891235,
        -1.1224092245101929
      ],
      "max": [
        1.2306779623031616,
        0.27709758281707764,
        0.5527193546295166
      ],
      "type": "VEC3"
    },
    {
      "bufferView": 6,
      "byteOffset": 948,
      "componentType": 5126,
      "normalized": false,
      "count": 2696,
      "min": [
        -0.9695322513580322,
        -1.6730871200561523,
        -1.0626156330108643
      ],
      "max": [
        0.08803939819335938,
        0.36855292320251465,
        0.1346416473388672
      ],
      "type": "VEC3"
    },
    {
      "bufferView": 6,
      "byteOffset": 960,
      "componentType": 5126,
      "normalized": false,
      "count": 2696,
      "min": [
        -0.3903259038925171,
        -0.5953931212425232,
        -0.40195900201797485
      ],
      "max": [
        0.8156166076660156,
        0.19783364236354828,
        0.2580164074897766
      ],
      "type": "VEC3"
    },
    {
      "bufferView": 6,
      "byteOffset": 972,
      "componentType": 5126,
      "normalized": false,
      "count": 2696,
      "min": [
        -0.07438945770263672,
        -0.4997248649597168,
        -0.04856729507446289
      ],
      "max": [
        0.3327230215072632,
        0.20481443405151367,
        0.6064505577087402
      ],
      "type": "VEC3"
    },
    {
      "bufferView": 6,
      "byteOffset": 984,
      "componentType": 5126,
      "normalized": false,
      "count": 2696,
      "min": [
        -0.8156147003173828,
        -0.5953868627548218,
        -0.40195465087890625
      ],
      "max": [
        0.3903258442878723,
        0.19783855974674225,
        0.2580164074897766
      ],
      "type": "VEC3"
    },
    {
      "bufferView": 6,
      "byteOffset": 996,
      "componentType": 5126,
      "normalized": false,
      "count": 2696,
      "min": [
        -0.3327230215072632,
        -0.4997248649597168,
        -0.04856729507446289
      ],
      "max": [
        0.07438945770263672,
        0.20481443405151367,
        0.6064505577087402
      ],
      "type": "VEC3"
    },
    {
      "bufferView": 6,
      "byteOffset": 1008,
      "componentType": 5126,
      "normalized": false,
      "count": 2696,
      "min": [
        -0.9063031077384949,
        -0.27290773391723633,
        -0.270995557308197
      ],
      "max": [
        0.6297816634178162,
        0.4288769066333771,
        0.4645553529262543
      ],
      "type": "VEC3"
    },
    {
      "bufferView": 6,
      "byteOffset": 1020,
      "componentType": 5126,
      "normalized": false,
      "count": 2696,
      "min": [
        -0.03603410720825195,
        -1.061476707458496,
        -0.6567716598510742
      ],
      "max": [
        0.543745756149292,
        0.161604642868042,
        0.05665254592895508
      ],
      "type": "VEC3"
    },
    {
      "bufferView": 6,
      "byteOffset": 1032,
      "componentType": 5126,
      "normalized": false,
      "count": 2696,
      "min": [
        -0.6297802925109863,
        -0.27290746569633484,
        -0.2709954082965851
      ],
      "max": [
        0.9062941670417786,
        0.4288758635520935,
        0.4645553529262543
      ],
      "type": "VEC3"
    },
    {
      "bufferView": 6,
      "byteOffset": 1044,
      "componentType": 5126,
      "normalized": false,
      "count": 2696,
      "min": [
        -0.543745756149292,
        -1.061476707458496,
        -0.6567716598510742
      ],
      "max": [
        0.03603410720825195,
        0.161604642868042,
        0.05665254592895508
      ],
      "type": "VEC3"
    },
    {
      "bufferView": 6,
      "byteOffset": 1056,
      "componentType": 5126,
      "normalized": false,
      "count": 2696,
      "min": [
        -1.6935542821884155,
        -0.31111711263656616,
        -1.032153844833374
      ],
      "max": [
        0.3889927566051483,
        0.4868422746658325,
        0.20434486865997314
      ],
      "type": "VEC3"
    },
    {
      "bufferView": 6,
      "byteOffset": 1068,
      "componentType": 5126,
      "normalized": false,
      "count": 2696,
      "min": [
        -0.10129737854003906,
        -0.6751861572265625,
        -0.8954966068267822
      ],
      "max": [
        0.3662741184234619,
        0.13684701919555664,
        0.003612041473388672
      ],
      "type": "VEC3"
    },
    {
      "bufferView": 6,
      "byteOffset": 1080,
      "componentType": 5126,
      "normalized": false,
      "count": 2696,
      "min": [
        -0.3889927864074707,
        -0.3111172318458557,
        -1.0321542024612427
      ],
      "max": [
        1.6935474872589111,
        0.4868422746658325,
        0.20434480905532837
      ],
      "type": "VEC3"
    },
    {
      "bufferView": 6,
      "byteOffset": 1092,
      "componentType": 5126,
      "normalized": false,
      "count": 2696,
      "min": [
        -0.3662741184234619,
        -0.6751861572265625,
        -0.8954966068267822
      ],
      "max": [
        0.10129737854003906,
        0.13684701919555664,
        0.003612041473388672
      ],
      "type": "VEC3"
    },
    {
      "bufferView": 6,
      "byteOffset": 1104,
      "componentType": 5126,
      "normalized": false,
      "count": 2696,
      "min": [
        -1.7162868976593018,
        -0.0882132351398468,
        -0.42302873730659485
      ],
      "max": [
        0.3316061496734619,
        0.6954290866851807,
        0.40345990657806396
      ],
      "type": "VEC3"
    },
    {
      "bufferView": 6,
      "byteOffset": 1116,
      "componentType": 5126,
      "normalized": false,
      "count": 2696,
      "min": [
        -0.02292954921722412,
        -0.21193647384643555,
        -0.020661354064941406
      ],
      "max": [
        0.12654876708984375,
        0.026713848114013672,
        0.8217086791992188
      ],
      "type": "VEC3"
    },
    {
      "bufferView": 6,
      "byteOffset": 1128,
      "componentType": 5126,
      "normalized": false,
      "count": 2696,
      "min": [
        -0.33160603046417236,
        -0.08821332454681396,
        -0.42302945256233215
      ],
      "max": [
        1.7162801027297974,
        0.6954343318939209,
        0.40347886085510254
      ],
      "type": "VEC3"
    },
    {
      "bufferView": 6,
      "byteOffset": 1140,
      "componentType": 5126,
      "normalized": false,
      "count": 2696,
      "min": [
        -0.12654876708984375,
        -0.21193647384643555,
        -0.020661354064941406
      ],
      "max": [
        0.02292954921722412,
        0.026713848114013672,
        0.8217086791992188
      ],
      "type": "VEC3"
    },
    {
      "bufferView": 6,
      "byteOffset": 1152,
      "componentType": 5126,
      "normalized": false,
      "count": 2696,
      "min": [
        -0.9725119471549988,
        -0.4588899612426758,
        -1.2714842557907104
      ],
      "max": [
        1.0526851415634155,
        0.42355066537857056,
        0.3821448087692261
      ],
      "type": "VEC3"
    },
    {
      "bufferView": 6,
      "byteOffset": 1164,
      "componentType": 5126,
      "normalized": false,
      "count": 2696,
      "min": [
        -0.09084844589233398,
        -0.3819260597229004,
        -1.0938239097595215
      ],
      "max": [
        0.5712659358978271,
        0.6338200569152832,
        0.07375788688659668
      ],
      "type": "VEC3"
    },
    {
      "bufferView": 6,
      "byteOffset": 1176,
      "componentType": 5126,
      "normalized": false,
      "count": 2696,
      "min": [
        -1.0526845455169678,
        -0.45889168977737427,
        -1.2714838981628418
      ],
      "max": [
        0.9725050926208496,
        0.42355096340179443,
        0.38214486837387085
      ],
      "type": "VEC3"
    },
    {
      "bufferView": 6,
      "byteOffset": 1188,
      "componentType": 5126,
      "normalized": false,
      "count": 2696,
      "min": [
        -0.5712659358978271,
        -0.3819260597229004,
        -1.0938239097595215
      ],
      "max": [
        0.09084844589233398,
        0.6338200569152832,
        0.07375788688659668
      ],
      "type": "VEC3"
    },
    {
      "bufferView": 6,
      "byteOffset": 1200,
      "componentType": 5126,
      "normalized": false,
      "count": 2696,
      "min": [
        -1.747799038887024,
        -0.35602328181266785,
        -0.6229619979858398
      ],
      "max": [
        0.46989133954048157,
        0.7800436019897461,
        0.7400749325752258
      ],
      "type": "VEC3"
    },
    {
      "bufferView": 6,
      "byteOffset": 1212,
      "componentType": 5126,
      "normalized": false,
      "count": 2696,
      "min": [
        -0.02956247329711914,
        -1.2923214435577393,
        -0.12632274627685547
      ],
      "max": [
        0.9221677780151367,
        0.014598369598388672,
        0.6622538566589355
      ],
      "type": "VEC3"
    },
    {
      "bufferView": 6,
      "byteOffset": 1224,
      "componentType": 5126,
      "normalized": false,
      "count": 2696,
      "min": [
        -0.4698912799358368,
        -0.3560240566730499,
        -0.6229621171951294
      ],
      "max": [
        1.747793197631836,
        0.7800464630126953,
        0.7400869131088257
      ],
      "type": "VEC3"
    },
    {
      "bufferView": 6,
      "byteOffset": 1236,
      "componentType": 5126,
      "normalized": false,
      "count": 2696,
      "min": [
        -0.9221677780151367,
        -1.2923214435577393,
        -0.12632274627685547
      ],
      "max": [
        0.02956247329711914,
        0.014598369598388672,
        0.6622538566589355
      ],
      "type": "VEC3"
    },
    {
      "bufferView": 6,
      "byteOffset": 1248,
      "componentType": 5126,
      "normalized": false,
      "count": 2696,
      "min": [
        -0.000029653310775756836,
        -0.000029169023036956787,
        -0.000030074268579483032
      ],
      "max": [
        0.00002862699329853058,
        0.000029139220714569092,
        0.000029282644391059875
      ],
      "type": "VEC3"
    },
    {
      "bufferView": 6,
      "byteOffset": 1260,
      "componentType": 5126,
      "normalized": false,
      "count": 2696,
      "min": [
        0,
        0,
        0
      ],
      "max": [
        0,
        0,
        0
      ],
      "type": "VEC3"
    },
    {
      "bufferView": 7,
      "byteOffset": 0,
      "componentType": 5126,
      "normalized": false,
      "count": 2696,
      "min": [
        0.007248349953442812,
        0.013404999859631062
      ],
      "max": [
        0.8373209834098816,
        0.989920973777771
      ],
      "type": "VEC2"
    },
    {
      "bufferView": 8,
      "byteOffset": 0,
      "componentType": 5125,
      "normalized": false,
      "count": 15096,
      "min": [
        0
      ],
      "max": [
        2695
      ],
      "type": "SCALAR"
    },
    {
      "bufferView": 9,
      "byteOffset": 0,
      "componentType": 5126,
      "normalized": false,
      "count": 614,
      "min": [
        -0.9990100264549255,
        -0.9997621774673462,
        -0.464168906211853
      ],
      "max": [
        0.999382734298706,
        0.9998222589492798,
        0.9995459318161011
      ],
      "type": "VEC3"
    },
    {
      "bufferView": 9,
      "byteOffset": 12,
      "componentType": 5126,
      "normalized": false,
      "count": 614,
      "min": [
        -2.7397451400756836,
        1.0070579051971436,
        2.9834365844726562
      ],
      "max": [
        2.740981101989746,
        5.627742767333984,
        4.58726167678833
      ],
      "type": "VEC3"
    },
    {
      "bufferView": 10,
      "byteOffset": 0,
      "componentType": 5126,
      "normalized": false,
      "count": 614,
      "min": [
        0.843638002872467,
        0.5084840059280396
      ],
      "max": [
        0.9848200082778931,
        0.9515849947929382
      ],
      "type": "VEC2"
    },
    {
      "bufferView": 11,
      "byteOffset": 0,
      "componentType": 5125,
      "normalized": false,
      "count": 3270,
      "min": [
        0
      ],
      "max": [
        613
      ],
      "type": "SCALAR"
    }
  ],
  "scene": 0,
  "scenes": [
    {
      "nodes": [
        13
      ],
      "name": "Sketchfab_Scene"
    }
  ],
  "nodes": [
    {
      "name": "Object_5",
      "mesh": 0
    },
    {
      "name": "eyeLeft_0",
      "children": [
        0
      ]
    },
    {
      "name": "grp_eyeLeft_1",
      "children": [
        1
      ],
      "matrix": [
        0.00996414478868246,
        -0.0008095736266113818,
        -0.0002457567898090929,
        0,
        0.00013835748541168869,
        -0.001306431950069964,
        0.009913327172398567,
        0,
        -0.0008346634567715228,
        -0.009881184436380863,
        -0.001290546846576035,
        0,
        -0.04900426045060158,
        0.032630130648612976,
        0.015271750278770924,
        1
      ]
    },
    {
      "name": "Object_8",
      "mesh": 1
    },
    {
      "name": "eyeRight_2",
      "children": [
        3
      ]
    },
    {
      "name": "grp_eyeRight_3",
      "children": [
        4
      ],
      "matrix": [
        0.00992772076278925,
        -0.0008063044515438378,
        -0.0008889527525752783,
        0,
        0.0007743743481114507,
        -0.0013553060125559568,
        0.009877421893179417,
        0,
        -0.0009169014520011842,
        -0.009874868206679821,
        -0.0012830720515921712,
        0,
        0.016529584303498268,
        0.02730591967701912,
        0.012971468269824982,
        1
      ]
    },
    {
      "name": "mesh_2",
      "mesh": 2
    },
    {
      "name": "head_4",
      "children": [
        6
      ]
    },
    {
      "name": "Object_13",
      "mesh": 3
    },
    {
      "name": "teeth_5",
      "children": [
        8
      ]
    },
    {
      "name": "grp_transform_6",
      "children": [
        7,
        9
      ],
      "matrix": [
        0.009961063973605633,
        -0.0008092739735729992,
        -0.00034964046790264547,
        0,
        0.00034810396027751267,
        -0.0000330908915202599,
        0.009993883781135082,
        0,
        -0.0008099362021312118,
        -0.009967143647372723,
        -0.000004790898401552113,
        0,
        -0.019182125106453896,
        0.0040101599879562855,
        -0.009691888466477394,
        1
      ]
    },
    {
      "name": "GLTF_SceneRootNode",
      "children": [
        2,
        5,
        10
      ],
      "matrix": [
        1,
        0,
        0,
        0,
        0,
        3.422854177870249e-8,
        0.9999999403953552,
        0,
        0,
        -0.9999999403953552,
        3.422854177870249e-8,
        0,
        0,
        0,
        0,
        1
      ]
    },
    {
      "name": "root",
      "children": [
        11
      ]
    },
    {
      "name": "Sketchfab_model",
      "children": [
        12
      ],
      "matrix": [
        1,
        0,
        0,
        0,
        0,
        3.422854177870249e-8,
        -0.9999999403953552,
        0,
        0,
        0.9999999403953552,
        3.422854177870249e-8,
        0,
        0,
        0,
        0,
        1
      ]
    }
  ],
  "meshes": [
    {
      "primitives": [
        {
          "material": 0,
          "mode": 4,
          "attributes": {
            "NORMAL": 0,
            "POSITION": 1,
            "TEXCOORD_0": 2
          },
          "indices": 3
        }
      ]
    },
    {
      "primitives": [
        {
          "material": 0,
          "mode": 4,
          "attributes": {
            "NORMAL": 4,
            "POSITION": 5,
            "TEXCOORD_0": 6
          },
          "indices": 7
        }
      ]
    },
    {
      "primitives": [
        {
          "material": 0,
          "mode": 4,
          "attributes": {
            "NORMAL": 8,
            "POSITION": 9,
            "TEXCOORD_0": 114
          },
          "targets": [
            {
              "normal": 10,
              "position": 11
            },
            {
              "normal": 12,
              "position": 13
            },
            {
              "normal": 14,
              "position": 15
            },
            {
              "normal": 16,
              "position": 17
            },
            {
              "normal": 18,
              "position": 19
            },
            {
              "normal": 20,
              "position": 21
            },
            {
              "normal": 22,
              "position": 23
            },
            {
              "normal": 24,
              "position": 25
            },
            {
              "normal": 26,
              "position": 27
            },
            {
              "normal": 28,
              "position": 29
            },
            {
              "normal": 30,
              "position": 31
            },
            {
              "normal": 32,
              "position": 33
            },
            {
              "normal": 34,
              "position": 35
            },
            {
              "normal": 36,
              "position": 37
            },
            {
              "normal": 38,
              "position": 39
            },
            {
              "normal": 40,
              "position": 41
            },
            {
              "normal": 42,
              "position": 43
            },
            {
              "normal": 44,
              "position": 45
            },
            {
              "normal": 46,
              "position": 47
            },
            {
              "normal": 48,
              "position": 49
            },
            {
              "normal": 50,
              "position": 51
            },
            {
              "normal": 52,
              "position": 53
            },
            {
              "normal": 54,
              "position": 55
            },
            {
              "normal": 56,
              "position": 57
            },
            {
              "normal": 58,
              "position": 59
            },
            {
              "normal": 60,
              "position": 61
            },
            {
              "normal": 62,
              "position": 63
            },
            {
              "normal": 64,
              "position": 65
            },
            {
              "normal": 66,
              "position": 67
            },
            {
              "normal": 68,
              "position": 69
            },
            {
              "normal": 70,
              "position": 71
            },
            {
              "normal": 72,
              "position": 73
            },
            {
              "normal": 74,
              "position": 75
            },
            {
              "normal": 76,
              "position": 77
            },
            {
              "normal": 78,
              "position": 79
            },
            {
              "normal": 80,
              "position": 81
            },
            {
              "normal": 82,
              "position": 83
            },
            {
              "normal": 84,
              "position": 85
            },
            {
              "normal": 86,
              "position": 87
            },
            {
              "normal": 88,
              "position": 89
            },
            {
              "normal": 90,
              "position": 91
            },
            {
              "normal": 92,
              "position": 93
            },
            {
              "normal": 94,
              "position": 95
            },
            {
              "normal": 96,
              "position": 97
            },
            {
              "normal": 98,
              "position": 99
            },
            {
              "normal": 100,
              "position": 101
            },
            {
              "normal": 102,
              "position": 103
            },
            {
              "normal": 104,
              "position": 105
            },
            {
              "normal": 106,
              "position": 107
            },
            {
              "normal": 108,
              "position": 109
            },
            {
              "normal": 110,
              "position": 111
            },
            {
              "normal": 112,
              "position": 113
            }
          ],
          "indices": 115
        }
      ],
      "weights": [
        0.09056267242434146,
        0.16699999570846558,
        0.16699999570846558,
        0,
        0,
        0,
        0,
        0.24626498980960748,
        0.24581816103566947,
        0.019999999552965164,
        0.10300000011920929,
        0,
        0,
        0.10611216029761068,
        0.10611216029761068,
        0.14159761206425708,
        0.14165853332314413,
        0,
        0,
        0.020999999716877937,
        0.13899999856948853,
        0.14011216214535469,
        0.12297641881497748,
        0.1164373278823023,
        0.004000000189989805,
        0.027000000700354576,
        0.009999999776482582,
        0,
        0.042112160983064105,
        0.024000000208616257,
        0.003000000026077032,
        0.0010000000474974513,
        0.0415626709597174,
        0.05700000002980232,
        0.10738550330121728,
        0.46387467294798335,
        0.006112161234274905,
        0.29448716368082234,
        0.2739522414256174,
        0,
        0,
        0.5230368356451804,
        0.5095642098075327,
        0.14838549894145767,
        0.15092367685901234,
        0.017999999225139618,
        0.017999999225139618,
        0.15243733182482938,
        0.15988783487441308,
        0.04743732686471307,
        0.07088784077527292,
        0.000020000001313746907
      ]
    },
    {
      "primitives": [
        {
          "material": 0,
          "mode": 4,
          "attributes": {
            "NORMAL": 116,
            "POSITION": 117,
            "TEXCOORD_0": 118
          },
          "indices": 119
        }
      ]
    }
  ],
  "materials": [
    {
      "name": "lambert5",
      "pbrMetallicRoughness": {
        "baseColorFactor": [
          0.29411764705882354,
          0.29411764705882354,
          0.29411764705882354,
          1
        ],
        "metallicFactor": 0.28220274390243905,
        "roughnessFactor": 0.6236661585365854
      },
      "emissiveFactor": [
        0,
        0,
        0
      ],
      "alphaMode": "OPAQUE",
      "doubleSided": true,
      "extensions": {
        "KHR_materials_clearcoat": {
          "clearcoatFactor": 0.4773246951219512,
          "clearcoatRoughnessFactor": 0.04
        }
      }
    }
  ],
  "extensionsUsed": [
    "KHR_materials_clearcoat"
  ]
}